<svg width="24" height="24" viewBox="0 0 24 24" fill="none" xmlns="http://www.w3.org/2000/svg">
<path d="M12.12 12.7797C12.05 12.7697 11.96 12.7697 11.88 12.7797C10.12 12.7197 8.71997 11.2797 8.71997 9.50974C8.71997 7.69974 10.18 6.22974 12 6.22974C13.81 6.22974 15.28 7.69974 15.28 9.50974C15.27 11.2797 13.88 12.7197 12.12 12.7797Z" stroke="#2B39A1" stroke-width="1.5" stroke-linecap="round" stroke-linejoin="round"/>
<path d="M18.7393 19.3798C16.9593 21.0098 14.5993 21.9998 11.9993 21.9998C9.39928 21.9998 7.03928 21.0098 5.25928 19.3798C5.35928 18.4398 5.95928 17.5198 7.02928 16.7998C9.76928 14.9798 14.2493 14.9798 16.9693 16.7998C18.0393 17.5198 18.6393 18.4398 18.7393 19.3798Z" stroke="#2B39A1" stroke-width="1.5" stroke-linecap="round" stroke-linejoin="round"/>
<path d="M12.0005 21.9998C17.5233 21.9998 22.0005 17.5226 22.0005 11.9998C22.0005 6.47691 17.5233 1.99976 12.0005 1.99976C6.47764 1.99976 2.00049 6.47691 2.00049 11.9998C2.00049 17.5226 6.47764 21.9998 12.0005 21.9998Z" stroke="#2B39A1" stroke-width="1.5" stroke-linecap="round" stroke-linejoin="round"/>
</svg>
