<svg width="16" height="17" viewBox="0 0 16 17" fill="none" xmlns="http://www.w3.org/2000/svg">
<path d="M8.015 0.592529C5.28907 0.592529 3.08166 2.79994 3.08166 5.52586V7.08142C3.08166 7.58512 2.87426 8.34068 2.615 8.77031L1.67426 10.3407C1.09648 11.311 1.49648 12.3925 2.56314 12.7481C6.10389 13.9259 9.93351 13.9259 13.4743 12.7481C14.4743 12.4148 14.9039 11.2444 14.3631 10.3407L13.4224 8.77031C13.1631 8.34068 12.9557 7.57771 12.9557 7.08142V5.52586C12.9483 2.81475 10.7261 0.592529 8.015 0.592529Z" fill="white"/>
<path d="M10.467 13.7927C10.467 15.1483 9.35591 16.2594 8.00036 16.2594C7.32628 16.2594 6.70406 15.9779 6.25962 15.5335C5.81517 15.089 5.53369 14.4668 5.53369 13.7927" fill="white"/>
</svg>
