<svg width="360" height="223" viewBox="0 0 360 223" fill="none" xmlns="http://www.w3.org/2000/svg">
<path d="M360 187.94C247 237.861 98.5 231.401 0 187.94V0H360V187.94Z" fill="#2B39A1"/>
<path d="M360 187.94C247 237.861 98.5 231.401 0 187.94V0H360V187.94Z" fill="#5E6CD4" fill-opacity="0.8"/>
<g opacity="0.1">
<mask id="mask0_260_155" style="mask-type:alpha" maskUnits="userSpaceOnUse" x="0" y="0" width="360" height="223">
<path d="M360 187.94C247 237.861 98.5 231.401 0 187.94V0H360V187.94Z" fill="#2B39A1"/>
<path d="M360 187.94C247 237.861 98.5 231.401 0 187.94V0H360V187.94Z" fill="#5E6CD4" fill-opacity="0.8"/>
</mask>
<g mask="url(#mask0_260_155)">
<g opacity="0.8">
<path d="M274.837 -13.8431C276.591 -14.1405 278.36 -13.8153 280.042 -12.8866C281.724 -11.958 283.284 -10.4447 284.63 -8.43554C285.976 -6.42641 287.082 -3.96203 287.881 -1.18716C288.681 1.5877 289.159 4.61708 289.287 7.72297C289.572 14.0571 288.445 20.3374 286.146 25.2221C283.846 30.1067 280.557 33.2081 276.981 33.8637C273.469 34.4732 269.923 33.8338 266.553 31.9833C263.182 30.1328 260.055 27.1086 257.357 23.0889C254.658 19.0693 252.442 14.1355 250.838 8.57827C249.235 3.02108 248.278 -3.04705 248.022 -9.26852C247.435 -21.9426 249.685 -34.5179 254.286 -44.2933C258.888 -54.0687 265.475 -60.2646 272.633 -61.55C277.894 -62.4457 283.203 -61.4735 288.248 -58.6906C293.293 -55.9077 297.973 -51.3703 302.012 -45.345C306.051 -39.3197 309.367 -31.9281 311.766 -23.6048C314.166 -15.2815 315.599 -6.19443 315.983 3.12222C316.851 22.1453 313.465 41.0116 306.552 55.6729C299.639 70.3342 289.751 79.6224 279.008 81.5444C271.991 82.7374 264.91 81.4394 258.181 77.7265C251.453 74.0136 245.212 67.961 239.825 59.9241C234.439 51.8872 230.016 42.0284 226.816 30.9271C223.616 19.8258 221.705 7.70594 221.193 -4.72002C220.059 -30.0434 224.576 -55.1458 233.776 -74.6609C242.977 -94.1761 256.132 -106.555 270.429 -109.152C279.199 -110.658 288.051 -109.049 296.464 -104.42C304.876 -99.7916 312.681 -92.2368 319.418 -82.2C326.155 -72.1632 331.689 -59.847 335.693 -45.9756C339.698 -32.1042 342.094 -16.9576 342.738 -1.42628C345.696 64.37 318.157 122.821 281.211 129.094C270.688 130.89 260.069 128.948 249.977 123.384C239.884 117.82 230.523 108.745 222.444 96.6945C214.365 84.6435 207.731 69.8591 202.931 53.2107C198.132 36.5622 195.264 18.3857 194.497 -0.249976C190.947 -79.2211 224.003 -149.252 268.344 -156.885" stroke="#1D266C" stroke-width="2" stroke-miterlimit="2.61"/>
<path fill-rule="evenodd" clip-rule="evenodd" d="M284.123 -12.1698C277.512 -22.8875 266.774 -15.5158 259.379 -3.93546C270.871 -6.41883 271.832 18.1012 281.564 11.9059C288.308 7.59264 289.181 -4.09228 284.182 -12.1698" fill="#1D266C"/>
<path fill-rule="evenodd" clip-rule="evenodd" d="M222.862 23.6428C222.398 24.55 222.027 25.594 221.767 26.7274C221.3 28.6082 221.191 30.707 221.458 32.7065C221.725 34.706 222.353 36.4978 223.247 37.8111C225.613 40.8696 228.778 35.6937 227.684 29.3154L227.595 28.7664C227.491 28.2959 227.595 28.7664 227.491 28.2436C227.95 28.7926 228.142 29.5768 228.97 30.5963C229.567 31.3299 230.241 31.8454 230.952 32.1124C231.712 32.3956 232.501 32.3012 233.232 31.8397C233.963 31.3783 234.607 30.5678 235.093 29.4983C235.553 28.3969 235.802 27.0639 235.802 25.6949C235.802 24.3259 235.553 22.9929 235.093 21.8914C234.713 20.8221 234.21 19.9063 233.616 19.2037C233.022 18.501 232.352 18.0273 231.647 17.8134C231.899 17.186 233.614 17.4736 235.123 13.9446C235.507 13.0229 235.765 11.9561 235.876 10.8283C235.988 9.70045 235.949 8.54238 235.764 7.4452C235.579 6.34803 235.253 5.34167 234.81 4.50537C234.368 3.66906 233.822 3.02564 233.215 2.6257C232.638 2.41817 232.041 2.45946 231.474 2.74612C230.908 3.03279 230.389 3.55636 229.961 4.27254C229.414 5.19071 229.086 6.44383 229.044 7.77543L228.956 7.77543C228.766 5.04193 228.236 2.41686 227.403 0.0900493C225.598 -4.06633 222.744 -4.48459 221.486 -1.55683C220.873 -0.14905 220.565 1.60135 220.619 3.37623C220.673 5.1511 221.086 6.83262 221.782 8.11523C222.046 8.52002 222.289 8.96626 222.507 9.44844C222.093 9.29159 221.753 9.03015 221.279 8.84717C220.829 8.64489 220.368 8.5223 219.904 8.4812C219.079 8.40888 218.256 8.70363 217.512 9.33842C216.768 9.97322 216.126 10.9278 215.644 12.1148C215.333 13.0642 215.133 14.1141 215.054 15.2025C214.976 16.291 215.021 17.3961 215.188 18.4531C215.355 19.51 215.639 20.4973 216.025 21.3571C216.411 22.2169 216.89 22.9318 217.434 23.4598C218.251 24.2758 219.173 24.7078 220.111 24.7146C220.608 24.7463 221.105 24.6673 221.59 24.4794C222.093 24.2702 222.389 23.9304 222.832 23.7474L222.862 23.6428ZM222.832 23.7474L222.921 23.7474L222.832 23.7474ZM227.565 28.3482L227.506 28.3482L227.506 28.1913L227.565 28.3482Z" fill="#1D266C"/>
<path fill-rule="evenodd" clip-rule="evenodd" d="M333.611 62.7234C334.107 62.6756 334.587 62.4085 335.009 61.9466C335.43 61.4847 335.779 60.8429 336.024 60.0802C336.268 59.3175 336.4 58.4584 336.408 57.5818C336.415 56.7053 336.298 55.8395 336.067 55.0641C335.714 53.6706 335.111 52.5219 334.351 51.7965C333.815 51.2808 333.198 51.0911 332.595 51.2568C331.991 51.4224 331.436 51.9343 331.014 52.7132C330.592 53.4922 330.326 54.495 330.258 55.5671C330.19 56.6392 330.324 57.721 330.639 58.6455C331.131 59.8088 331.686 60.8855 332.295 61.8607C332.664 62.4104 333.129 62.7156 333.611 62.7234Z" fill="#1D266C"/>
<path fill-rule="evenodd" clip-rule="evenodd" d="M281.004 81.0476C281.499 80.9998 281.98 80.7327 282.401 80.2708C282.823 79.8089 283.172 79.1671 283.416 78.4044C283.661 77.6417 283.793 76.7826 283.8 75.9061C283.808 75.0295 283.691 74.1637 283.459 73.3884C283.107 71.9948 282.504 70.8461 281.744 70.1208C281.207 69.605 280.59 69.4153 279.987 69.581C279.384 69.7467 278.829 70.2584 278.406 71.0374C277.984 71.8164 277.719 72.8193 277.651 73.8913C277.583 74.9634 277.717 76.0451 278.031 76.9696C278.524 78.133 279.078 79.2097 279.688 80.185C280.056 80.7347 280.522 81.0397 281.004 81.0476Z" fill="#1D266C"/>
<path fill-rule="evenodd" clip-rule="evenodd" d="M233.009 108.208C233.505 108.158 233.986 107.888 234.407 107.423C234.829 106.958 235.177 106.313 235.42 105.547C235.664 104.781 235.794 103.919 235.799 103.041C235.804 102.163 235.684 101.297 235.449 100.523C235.105 99.1339 234.506 97.9916 233.748 97.2812C233.214 96.7493 232.595 96.5462 231.989 96.7038C231.382 96.8614 230.822 97.3707 230.397 98.1518C229.972 98.9328 229.706 99.9412 229.641 101.019C229.575 102.096 229.714 103.181 230.036 104.104C230.515 105.278 231.066 106.356 231.678 107.319C232.05 107.878 232.52 108.192 233.009 108.208Z" fill="#1D266C"/>
<path fill-rule="evenodd" clip-rule="evenodd" d="M306.19 113.097C307.669 115.267 307.21 114.143 308.024 114.874C307.97 115.147 307.949 115.437 307.961 115.725C307.974 116.013 308.021 116.293 308.098 116.548C308.6 118.665 309.34 119.031 310.612 120.259C311.242 120.832 311.889 121.347 312.549 121.802C313.768 122.785 315.049 123.504 316.365 123.945C316.262 122.878 316.078 121.841 315.818 120.861C315.729 120.442 315.655 120.233 315.552 119.815L315.064 117.828L314.797 116.783L313.215 111.711C312.963 110.982 312.625 110.358 312.224 109.88C311.824 109.402 311.37 109.081 310.893 108.941C310.939 108.3 310.894 107.649 310.762 107.047C310.631 106.445 310.416 105.91 310.139 105.49C308.961 103.99 307.672 102.785 306.308 101.909L305.376 101.229C304.432 100.507 303.437 100.015 302.418 99.7651C302.679 101.468 303.02 103.13 303.439 104.732C304.011 107.03 304.653 109.273 305.361 111.45C305.569 112.058 305.822 112.612 306.116 113.097" fill="#1D266C"/>
<path fill-rule="evenodd" clip-rule="evenodd" d="M203.841 49.1812C202.362 51.2725 203.043 50.6975 202.466 51.9522C202.328 51.8038 202.174 51.7065 202.014 51.6661C201.853 51.6256 201.69 51.6429 201.534 51.7169C200.247 52.1351 199.878 53.3115 198.931 55.2459C198.472 56.2 198.047 57.204 197.659 58.2521C196.844 60.1274 196.164 62.1731 195.633 64.3429C196.242 64.4183 196.855 64.3391 197.452 64.1076C197.689 64.1076 197.836 63.9508 198.073 63.8724C198.31 63.794 198.857 63.5848 199.286 63.4541C199.715 63.3234 199.715 63.2973 199.922 63.2189L203.072 61.5981C203.529 61.3191 203.947 60.8719 204.299 60.2861C204.651 59.7003 204.928 58.9892 205.113 58.1998C205.453 58.4301 205.82 58.5029 206.18 58.4114C206.54 58.3199 206.88 58.067 207.169 57.677C208.256 55.969 209.206 54.008 209.994 51.8476L210.571 50.3838C211.173 48.9492 211.67 47.3858 212.05 45.7307C211.054 45.8011 210.064 46.0285 209.092 46.4103C207.696 46.8746 206.317 47.4945 204.965 48.2664C204.581 48.4737 204.217 48.7821 203.886 49.1812" fill="#1D266C"/>
<path d="M261.893 299.793C260.14 300.09 258.37 299.765 256.688 298.837C255.006 297.908 253.446 296.395 252.1 294.385C250.754 292.376 249.649 289.912 248.849 287.137C248.049 284.362 247.571 281.333 247.443 278.227C247.158 271.893 248.285 265.613 250.585 260.728C252.884 255.843 256.173 252.742 259.749 252.086C263.257 251.492 266.798 252.142 270.162 253.999C273.527 255.856 276.647 258.882 279.341 262.9C282.034 266.918 284.246 271.846 285.847 277.396C287.448 282.946 288.406 289.006 288.664 295.218C289.242 307.894 286.989 320.465 282.385 330.238C277.782 340.011 271.196 346.208 264.038 347.5C258.777 348.396 253.468 347.423 248.423 344.641C243.378 341.858 238.698 337.32 234.659 331.295C230.621 325.27 227.304 317.878 224.905 309.555C222.505 301.231 221.072 292.144 220.688 282.828C219.824 263.806 223.211 244.943 230.123 230.284C237.035 215.624 246.922 206.334 257.663 204.405C264.68 203.212 271.761 204.511 278.49 208.223C285.219 211.936 291.459 217.989 296.846 226.026C302.232 234.063 306.655 243.922 309.855 255.023C313.055 266.124 314.967 278.244 315.478 290.67C316.612 315.989 312.098 341.088 302.9 360.602C293.702 380.117 280.551 392.499 266.257 395.102C257.487 396.596 248.636 394.976 240.226 390.338C231.816 385.699 224.015 378.136 217.282 368.092C210.549 358.048 205.02 345.727 201.021 331.852C197.021 317.977 194.631 302.829 193.992 287.298C191.034 221.475 218.573 163.051 255.519 156.777C266.037 154.997 276.651 156.949 286.736 162.52C296.821 168.091 306.175 177.168 314.248 189.217C322.32 201.267 328.949 216.046 333.745 232.687C338.541 249.328 341.407 267.495 342.174 286.121C345.724 365.093 312.668 435.124 268.342 442.757" stroke="#1D266C" stroke-width="2" stroke-miterlimit="2.61"/>
<path fill-rule="evenodd" clip-rule="evenodd" d="M255.607 204.903C255.112 204.951 254.631 205.218 254.21 205.68C253.788 206.142 253.439 206.783 253.195 207.546C252.95 208.309 252.818 209.168 252.811 210.044C252.803 210.921 252.921 211.787 253.152 212.562C253.504 213.956 254.108 215.104 254.868 215.83C255.404 216.345 256.021 216.535 256.624 216.369C257.227 216.204 257.783 215.692 258.205 214.913C258.627 214.134 258.893 213.131 258.96 212.059C259.028 210.987 258.894 209.905 258.58 208.981C258.087 207.817 257.533 206.741 256.923 205.766C256.555 205.216 256.089 204.911 255.607 204.903Z" fill="#1D266C"/>
<path fill-rule="evenodd" clip-rule="evenodd" d="M303.662 177.742C303.166 177.792 302.685 178.062 302.264 178.527C301.842 178.992 301.494 179.637 301.251 180.403C301.007 181.169 300.877 182.031 300.872 182.909C300.867 183.787 300.987 184.653 301.222 185.428C301.566 186.816 302.165 187.959 302.923 188.669C303.457 189.201 304.076 189.404 304.682 189.246C305.289 189.089 305.849 188.579 306.274 187.798C306.699 187.017 306.965 186.009 307.03 184.932C307.096 183.854 306.957 182.769 306.635 181.846C306.152 180.669 305.602 179.583 304.993 178.605C304.617 178.061 304.148 177.757 303.662 177.742Z" fill="#1D266C"/>
<path fill-rule="evenodd" clip-rule="evenodd" d="M230.465 172.854C228.986 170.684 229.444 171.808 228.631 171.076C228.696 170.813 228.73 170.528 228.73 170.24C228.73 169.952 228.696 169.667 228.631 169.403C228.128 167.286 227.388 166.789 226.117 165.691C225.486 165.118 224.84 164.604 224.179 164.149C222.961 163.163 221.68 162.443 220.363 162.006C220.466 163.073 220.65 164.11 220.91 165.09L221.177 166.136L221.679 168.123L221.931 169.168L223.513 174.24C223.766 174.969 224.103 175.593 224.504 176.071C224.905 176.549 225.359 176.87 225.836 177.01C225.79 177.651 225.834 178.302 225.966 178.904C226.098 179.506 226.312 180.041 226.59 180.461C227.767 181.961 229.056 183.166 230.42 184.042L231.352 184.722C232.273 185.432 233.243 185.925 234.236 186.186C233.975 184.483 233.634 182.821 233.216 181.219C232.643 178.921 232.001 176.678 231.293 174.501C231.086 173.893 230.832 173.339 230.539 172.854" fill="#1D266C"/>
<path fill-rule="evenodd" clip-rule="evenodd" d="M332.753 236.768C334.232 234.676 333.552 235.252 334.129 233.997C334.267 234.145 334.421 234.243 334.581 234.283C334.741 234.323 334.904 234.306 335.061 234.232C336.347 233.814 336.717 232.637 337.664 230.703C338.123 229.743 338.552 228.739 338.95 227.697C339.756 225.815 340.431 223.771 340.962 221.606C340.352 221.532 339.74 221.611 339.143 221.841C338.906 221.841 338.758 221.998 338.522 222.077C338.285 222.155 337.738 222.338 337.309 222.495C336.88 222.652 336.88 222.652 336.673 222.73L333.522 224.351C333.066 224.63 332.647 225.077 332.296 225.663C331.944 226.249 331.666 226.96 331.481 227.749C331.142 227.519 330.775 227.446 330.415 227.538C330.055 227.629 329.715 227.882 329.426 228.272C328.339 229.98 327.389 231.941 326.601 234.101L326.024 235.565C325.415 236.993 324.918 238.557 324.545 240.218C325.54 240.149 326.53 239.922 327.503 239.539C328.899 239.074 330.277 238.454 331.629 237.683C332.013 237.475 332.377 237.167 332.709 236.768" fill="#1D266C"/>
<path d="M336.451 60.03C319.546 192.459 384.134 170.03 373.13 124.389" stroke="#1D266C" stroke-width="2" stroke-miterlimit="2.61"/>
<path fill-rule="evenodd" clip-rule="evenodd" d="M343.669 148.857C343.171 148.811 342.689 148.544 342.265 148.081C341.842 147.617 341.491 146.973 341.246 146.206C341.002 145.44 340.87 144.576 340.864 143.696C340.859 142.816 340.979 141.948 341.213 141.171C341.567 139.785 342.17 138.645 342.929 137.93C343.465 137.414 344.082 137.224 344.686 137.39C345.289 137.556 345.844 138.067 346.266 138.846C346.689 139.625 346.954 140.628 347.022 141.7C347.09 142.773 346.956 143.854 346.641 144.779C346.149 145.942 345.594 147.019 344.985 147.994C344.615 148.538 344.15 148.842 343.669 148.857Z" fill="#1D266C"/>
<path fill-rule="evenodd" clip-rule="evenodd" d="M375.112 136.074C377.02 120.573 368.013 107.868 358.636 102.405C365.632 118.717 354.199 132.519 362.023 144.23C367.54 152.36 373.678 147.811 375.112 136.126" fill="#1D266C"/>
<path d="M102.235 299.794C100.48 300.095 98.7089 299.772 97.0254 298.845C95.342 297.918 93.7804 296.406 92.4326 294.396C91.0848 292.387 89.978 289.921 89.1774 287.144C88.3768 284.368 87.8984 281.336 87.7706 278.228C87.4849 271.893 88.6123 265.613 90.9116 260.728C93.211 255.844 96.5001 252.742 100.076 252.087C103.585 251.488 107.126 252.136 110.491 253.992C113.857 255.847 116.978 258.873 119.672 262.892C122.366 266.911 124.578 271.841 126.179 277.392C127.779 282.944 128.735 289.005 128.991 295.219C129.57 307.89 127.318 320.458 122.718 330.23C118.118 340.003 111.535 346.202 104.38 347.501C99.1179 348.4 93.8073 347.43 88.7603 344.649C83.7134 341.868 79.032 337.331 74.9916 331.306C70.9512 325.28 67.6334 317.887 65.2331 309.562C62.8329 301.237 61.3988 292.147 61.0152 282.828C60.1514 263.807 63.5386 244.944 70.4506 230.284C77.3625 215.624 87.249 206.335 97.9906 204.406C105.008 203.209 112.089 204.505 118.819 208.216C125.549 211.928 131.79 217.98 137.177 226.018C142.564 234.055 146.987 243.916 150.186 255.019C153.385 266.122 155.296 278.243 155.805 290.671C156.942 316.01 152.422 341.13 143.211 360.653C134.001 380.176 120.832 392.551 106.525 395.129C97.7548 396.623 88.9045 395.003 80.494 390.365C72.0835 385.726 64.2826 378.163 57.5498 368.119C50.8171 358.075 45.2884 345.753 41.2887 331.878C37.2891 318.003 34.8993 302.855 34.2598 287.324C31.3018 221.502 58.8411 163.078 95.7869 156.804C106.309 155.009 116.927 156.949 127.018 162.512C137.11 168.074 146.47 177.146 154.549 189.195C162.628 201.243 169.263 216.024 174.063 232.67C178.863 249.315 181.732 267.489 182.502 286.122C186.051 365.093 152.995 435.124 108.669 442.757" stroke="#1D266C" stroke-width="2" stroke-miterlimit="2.61"/>
<path fill-rule="evenodd" clip-rule="evenodd" d="M95.9928 204.903C95.4989 204.955 95.0202 205.225 94.6006 205.689C94.181 206.152 93.8339 206.794 93.5911 207.556C93.3482 208.318 93.2175 209.176 93.2107 210.051C93.204 210.925 93.3215 211.789 93.5525 212.562C93.8993 213.954 94.4975 215.103 95.2533 215.83C95.7894 216.345 96.4066 216.535 97.0097 216.369C97.6128 216.204 98.1684 215.692 98.5906 214.913C99.0128 214.134 99.2783 213.131 99.3461 212.059C99.4139 210.987 99.2802 209.905 98.9657 208.981C98.4732 207.817 97.9185 206.741 97.3092 205.766C96.9426 205.21 96.4757 204.904 95.9928 204.903Z" fill="#1D266C"/>
<path fill-rule="evenodd" clip-rule="evenodd" d="M143.987 177.742C143.491 177.792 143.01 178.062 142.589 178.527C142.167 178.992 141.819 179.637 141.576 180.403C141.333 181.169 141.203 182.031 141.198 182.909C141.192 183.787 141.313 184.653 141.547 185.428C141.891 186.816 142.49 187.959 143.248 188.669C143.782 189.201 144.401 189.404 145.008 189.246C145.614 189.089 146.174 188.579 146.599 187.798C147.024 187.017 147.29 186.009 147.355 184.932C147.421 183.854 147.282 182.769 146.96 181.846C146.477 180.669 145.927 179.583 145.318 178.605C144.942 178.061 144.473 177.757 143.987 177.742Z" fill="#1D266C"/>
<path fill-rule="evenodd" clip-rule="evenodd" d="M70.731 172.854C69.252 170.685 69.7105 171.809 68.8971 171.077C69.022 170.541 69.022 169.94 68.8971 169.404C68.3794 167.286 67.6399 166.79 66.3679 165.692C65.7376 165.119 65.0909 164.604 64.4304 164.149C63.2125 163.163 61.9311 162.443 60.6146 162.006C60.7174 163.073 60.9015 164.111 61.1618 165.091L61.428 166.136L61.9309 168.123L62.1823 169.168L63.7649 174.24C64.0169 174.969 64.3548 175.593 64.7554 176.072C65.156 176.55 65.6101 176.87 66.0869 177.011C66.0409 177.651 66.0859 178.302 66.2175 178.904C66.3492 179.507 66.5635 180.042 66.8412 180.461C68.0325 182.016 69.3421 183.266 70.731 184.173L71.6628 184.853C72.5835 185.563 73.5532 186.055 74.5469 186.317C74.2926 184.61 73.9511 182.948 73.5264 181.35C72.9658 179.042 72.3236 176.798 71.6036 174.632C71.3964 174.024 71.1426 173.47 70.8493 172.985" fill="#1D266C"/>
<path fill-rule="evenodd" clip-rule="evenodd" d="M173.08 236.768C174.559 234.677 173.878 235.252 174.455 233.997C174.596 234.146 174.752 234.244 174.915 234.284C175.077 234.325 175.243 234.307 175.402 234.232C176.674 233.814 177.043 232.638 178.005 230.703C178.459 229.743 178.884 228.739 179.277 227.697C180.082 225.816 180.757 223.771 181.288 221.607C180.683 221.531 180.076 221.611 179.484 221.842C179.232 221.842 179.084 221.999 178.848 222.077C178.611 222.155 178.064 222.338 177.635 222.495C177.206 222.652 177.221 222.652 176.999 222.731L173.849 224.351C173.392 224.63 172.974 225.077 172.622 225.663C172.27 226.249 171.992 226.96 171.808 227.75C171.468 227.519 171.101 227.447 170.741 227.538C170.381 227.63 170.041 227.882 169.752 228.272C168.644 229.973 167.674 231.935 166.868 234.102L166.291 235.566C165.682 236.993 165.185 238.558 164.812 240.219C165.807 240.15 166.797 239.922 167.77 239.539C169.166 239.075 170.544 238.455 171.896 237.683C172.28 237.476 172.644 237.167 172.976 236.768" fill="#1D266C"/>
<path d="M115.101 -13.8431C116.855 -14.1405 118.625 -13.8153 120.306 -12.8866C121.988 -11.958 123.548 -10.4447 124.894 -8.43554C126.24 -6.42641 127.346 -3.96203 128.145 -1.18716C128.945 1.5877 129.423 4.61708 129.551 7.72297C129.836 14.0571 128.709 20.3374 126.41 25.2221C124.11 30.1067 120.821 33.2081 117.245 33.8637C113.738 34.4584 110.198 33.808 106.835 31.9507C103.471 30.0934 100.351 27.0668 97.659 23.0485C94.9667 19.0302 92.7558 14.1014 91.1564 8.55171C89.557 3.00198 88.6013 -3.05675 88.3455 -9.26852C87.7665 -21.9396 90.0183 -34.5076 94.6185 -44.2799C99.2187 -54.0523 105.801 -60.2517 112.956 -61.55C118.217 -62.4457 123.526 -61.4735 128.571 -58.6906C133.617 -55.9077 138.296 -51.3703 142.335 -45.345C146.374 -39.3197 149.69 -31.9281 152.09 -23.6048C154.489 -15.2815 155.922 -6.19443 156.306 3.12222C157.174 22.1453 153.788 41.0116 146.875 55.6729C139.963 70.3342 130.074 79.6224 119.331 81.5444C112.315 82.7374 105.235 81.4392 98.507 77.726C91.7791 74.0129 85.5391 67.9598 80.154 59.9226C74.7688 51.8854 70.3471 42.0264 67.149 30.9253C63.9508 19.8241 62.0407 7.70479 61.5309 -4.72002C60.3932 -30.0407 64.9061 -55.1432 74.1045 -74.6592C83.3029 -94.1752 96.4565 -106.555 110.753 -109.152C119.523 -110.661 128.375 -109.055 136.789 -104.428C145.203 -99.8006 153.008 -92.2461 159.745 -82.2086C166.483 -72.1712 172.016 -59.8536 176.021 -45.9805C180.025 -32.1073 182.419 -16.9588 183.062 -1.42628C186.02 64.37 158.48 122.821 121.535 129.094C111.012 130.89 100.392 128.948 90.2998 123.384C80.2076 117.82 70.8467 108.745 62.7675 96.6945C54.6884 84.6435 48.0539 69.8591 43.2544 53.2107C38.4549 36.5622 35.5872 18.3857 34.8199 -0.249976C31.2702 -79.2211 64.3262 -149.252 108.667 -156.885" stroke="#1D266C" stroke-width="2" stroke-miterlimit="2.61"/>
<path fill-rule="evenodd" clip-rule="evenodd" d="M124.45 -12.1695C117.839 -22.8872 107.101 -15.5156 99.706 -3.93521C111.198 -6.41858 112.159 18.1015 121.891 11.9061C128.636 7.59289 129.508 -4.09204 124.509 -12.1695" fill="#1D266C"/>
<path fill-rule="evenodd" clip-rule="evenodd" d="M63.1872 23.6431C62.7231 24.5502 62.3527 25.5942 62.0927 26.7277C61.6251 28.6085 61.5165 30.7072 61.7833 32.7067C62.0502 34.7063 62.6779 36.4981 63.5717 37.8114C65.9381 40.8699 69.1032 35.694 68.0088 29.3157L67.92 28.7666C67.8703 28.603 67.8353 28.4266 67.8165 28.2439C68.275 28.7928 68.4673 29.577 69.2955 30.5965C69.8924 31.3302 70.5662 31.8456 71.2774 32.1126C72.0369 32.3958 72.826 32.3014 73.557 31.84C74.288 31.3785 74.9324 30.5681 75.4186 29.4986C75.8787 28.3971 76.1268 27.0642 76.1268 25.6951C76.1268 24.3261 75.8787 22.9931 75.4186 21.8917C75.0385 20.8224 74.5351 19.9065 73.9413 19.2039C73.3476 18.5013 72.6767 18.0276 71.9725 17.8137C72.2239 17.1863 73.9396 17.4739 75.4482 13.9449C75.8323 13.0231 76.0902 11.9563 76.2014 10.8285C76.3127 9.7007 76.2744 8.54262 76.0895 7.44545C75.9045 6.34827 75.578 5.34191 75.1357 4.50561C74.6933 3.66931 74.1472 3.02589 73.5403 2.62595C72.9629 2.41842 72.3658 2.45971 71.7995 2.74637C71.2331 3.03303 70.7141 3.5566 70.2865 4.27279C69.7392 5.19096 69.4111 6.44408 69.3694 7.77567L69.2807 7.77567C69.097 5.03992 68.5661 2.4128 67.7277 0.0902934C65.9233 -4.06608 63.0688 -4.48435 61.8117 -1.55659C61.1977 -0.148805 60.8899 1.6016 60.9442 3.37647C60.9985 5.15134 61.4113 6.83287 62.1075 8.11548C62.3714 8.52026 62.6139 8.9665 62.8322 9.44868C62.4181 9.29183 62.0927 9.0304 61.6046 8.84741C61.1589 8.64717 60.7032 8.52459 60.2439 8.48144C59.4164 8.40708 58.5915 8.70073 57.8448 9.33552C57.098 9.9703 56.4533 10.9259 55.9696 12.115C55.6584 13.0645 55.4578 14.1143 55.3795 15.2028C55.3011 16.2912 55.3466 17.3964 55.5134 18.4533C55.6801 19.5102 55.9647 20.4975 56.3503 21.3574C56.736 22.2172 57.215 22.9321 57.7592 23.4601C58.5516 24.1695 59.4296 24.5284 60.3179 24.5058C60.8145 24.5374 61.3114 24.4583 61.7969 24.2704C62.2997 24.0613 62.5955 23.7215 63.0392 23.5385L63.1872 23.6431ZM63.0392 23.5385L63.128 23.5385L63.0392 23.5385ZM67.7721 28.1393L67.7721 27.9824L67.7721 28.1393Z" fill="#1D266C"/>
<path fill-rule="evenodd" clip-rule="evenodd" d="M173.936 62.7234C174.431 62.6756 174.911 62.4085 175.333 61.9466C175.755 61.4847 176.104 60.8429 176.348 60.0802C176.593 59.3175 176.725 58.4584 176.732 57.5818C176.74 56.7053 176.622 55.8395 176.391 55.0641C176.038 53.6706 175.435 52.5219 174.675 51.7965C174.139 51.2808 173.522 51.0911 172.919 51.2568C172.316 51.4224 171.76 51.9343 171.338 52.7132C170.916 53.4922 170.65 54.495 170.582 55.5671C170.515 56.6392 170.648 57.721 170.963 58.6455C171.459 59.8027 172.014 60.8788 172.619 61.8607C172.988 62.4104 173.453 62.7156 173.936 62.7234Z" fill="#1D266C"/>
<path fill-rule="evenodd" clip-rule="evenodd" d="M121.326 81.0475C121.822 80.9997 122.302 80.7326 122.724 80.2707C123.145 79.8088 123.494 79.167 123.739 78.4043C123.983 77.6416 124.115 76.7825 124.123 75.906C124.13 75.0294 124.013 74.1636 123.781 73.3882C123.429 71.9947 122.826 70.846 122.066 70.1207C121.528 69.5967 120.908 69.4018 120.301 69.5665C119.694 69.7311 119.135 70.2461 118.711 71.031C118.288 71.8159 118.023 72.8267 117.958 73.9057C117.893 74.9846 118.032 76.0711 118.354 76.9957C118.85 78.1529 119.404 79.2291 120.01 80.211C120.379 80.7607 120.844 81.0658 121.326 81.0736" fill="#1D266C"/>
<path fill-rule="evenodd" clip-rule="evenodd" d="M73.335 108.208C73.8311 108.158 74.312 107.888 74.7335 107.423C75.155 106.958 75.5033 106.313 75.7465 105.547C75.9897 104.781 76.1198 103.92 76.1248 103.042C76.1299 102.163 76.0097 101.297 75.7754 100.523C75.4315 99.1342 74.8321 97.9918 74.0745 97.2814C73.5403 96.7496 72.9213 96.5465 72.3148 96.7041C71.7082 96.8617 71.1485 97.371 70.7235 98.152C70.2986 98.933 70.0325 99.9415 69.9671 101.019C69.9017 102.096 70.0406 103.182 70.3622 104.104C70.8459 105.272 71.396 106.349 72.0038 107.319C72.3762 107.879 72.8465 108.193 73.335 108.208Z" fill="#1D266C"/>
<path fill-rule="evenodd" clip-rule="evenodd" d="M146.515 113.097C147.994 115.267 147.536 114.143 148.349 114.874C148.284 115.138 148.251 115.423 148.251 115.711C148.251 115.999 148.284 116.284 148.349 116.548C148.852 118.665 149.592 119.031 150.864 120.259C151.494 120.832 152.141 121.347 152.801 121.802C154.02 122.785 155.301 123.504 156.617 123.945C156.514 122.878 156.33 121.841 156.07 120.861L155.819 119.815L155.316 117.828L155.049 116.783L153.556 111.711C153.305 110.98 152.968 110.354 152.567 109.875C152.166 109.397 151.711 109.078 151.234 108.941C151.283 108.302 151.241 107.652 151.112 107.049C150.982 106.447 150.77 105.911 150.494 105.49C149.312 103.989 148.017 102.784 146.649 101.909L145.717 101.229C144.796 100.519 143.826 100.026 142.833 99.7651C143.094 101.468 143.435 103.13 143.853 104.732C144.426 107.03 145.068 109.273 145.776 111.45C145.983 112.058 146.237 112.612 146.53 113.097" fill="#1D266C"/>
<path fill-rule="evenodd" clip-rule="evenodd" d="M44.2426 49.1812C42.7636 51.2725 43.4439 50.6975 42.8671 51.9522C42.7289 51.8038 42.575 51.7065 42.4149 51.6661C42.2547 51.6256 42.0916 51.6429 41.9353 51.7169C40.6486 52.1351 40.2788 53.3115 39.3323 55.2459C38.8778 56.2065 38.4532 57.21 38.0603 58.2521C37.2458 60.1274 36.5653 62.1731 36.0341 64.3429C36.6437 64.4183 37.2563 64.3391 37.8532 64.1076C38.0899 64.1076 38.2378 63.9508 38.4893 63.8724C38.7407 63.794 39.2583 63.5848 39.6873 63.4541C40.1162 63.3234 40.1162 63.2973 40.3232 63.2189L43.4735 61.5981C43.9318 61.3236 44.3512 60.878 44.7034 60.2917C45.0555 59.7053 45.3322 58.9919 45.5146 58.1998C45.8565 58.4298 46.2259 58.5025 46.5881 58.4111C46.9503 58.3196 47.2934 58.067 47.5852 57.677C48.6675 55.9687 49.6129 54.0075 50.3953 51.8476L50.9722 50.3838C51.5798 48.9557 52.0772 47.3909 52.4512 45.7307C51.4558 45.8028 50.4659 46.0302 49.4931 46.4103C48.0973 46.8777 46.7191 47.4976 45.3667 48.2664C44.9828 48.4737 44.6188 48.7821 44.287 49.1812" fill="#1D266C"/>
<path d="M-54.113 -13.8436C-52.3591 -14.141 -50.5893 -13.8158 -48.9076 -12.8871C-47.2258 -11.9585 -45.666 -10.4452 -44.3198 -8.43603C-42.9736 -6.4269 -41.8682 -3.96252 -41.0685 -1.18765C-40.2688 1.58721 -39.791 4.6166 -39.6631 7.72248C-39.3774 14.0566 -40.5047 20.337 -42.8041 25.2216C-45.1034 30.1062 -48.3925 33.2076 -51.9684 33.8632C-55.4774 34.4616 -59.0186 33.8139 -62.3838 31.9583C-65.7491 30.1028 -68.8705 27.0767 -71.5644 23.0581C-74.2584 19.0395 -76.4706 14.1094 -78.0709 8.55784C-79.6713 3.00625 -80.6274 -3.05482 -80.8832 -9.269C-81.4622 -21.9401 -79.2104 -34.5081 -74.6102 -44.2804C-70.01 -54.0528 -63.4273 -60.2521 -56.2724 -61.5505C-51.0103 -62.4499 -45.6997 -61.4805 -40.6527 -58.6993C-35.6058 -55.9181 -30.9245 -51.3812 -26.8841 -45.3555C-22.8437 -39.3299 -19.5258 -31.9371 -17.1256 -23.6119C-14.7254 -15.2868 -13.2912 -6.19735 -12.9076 3.12173C-12.0438 22.1433 -15.431 41.0059 -22.343 55.6657C-29.2549 70.3255 -39.1415 79.6154 -49.883 81.5439C-56.9001 82.7406 -63.9817 81.4451 -70.7113 77.7337C-77.441 74.0222 -83.6827 67.9698 -89.0695 59.9322C-94.4563 51.8947 -98.8793 42.0344 -102.078 30.9314C-105.277 19.8284 -107.188 7.70673 -107.698 -4.72051C-108.832 -30.0398 -104.317 -55.1386 -95.1196 -74.653C-85.922 -94.1675 -72.7706 -106.549 -58.4761 -109.153C-49.7051 -110.662 -40.852 -109.056 -32.4374 -104.429C-24.0227 -99.8019 -16.2166 -92.2477 -9.47795 -82.2106C-2.73934 -72.1735 2.79566 -59.8561 6.80146 -45.9828C10.8073 -32.1095 13.203 -16.9605 13.8478 -1.42677C16.8058 64.3695 -10.7335 122.82 -47.6793 129.094C-58.2022 130.889 -68.8219 128.947 -78.9141 123.383C-89.0063 117.819 -98.3672 108.745 -106.446 96.694C-114.526 84.643 -121.16 69.8587 -125.959 53.2102C-130.759 36.5618 -133.627 18.3853 -134.394 -0.250465C-137.944 -79.2216 -104.888 -149.253 -60.5615 -156.886" stroke="#1D266C" stroke-width="2" stroke-miterlimit="2.61"/>
<path fill-rule="evenodd" clip-rule="evenodd" d="M4.72349 62.7234C5.21746 62.6715 5.69615 62.4013 6.11576 61.9377C6.53536 61.4741 6.88246 60.8319 7.12527 60.0699C7.36808 59.3078 7.49884 58.4502 7.50558 57.5757C7.51233 56.7012 7.39483 55.8376 7.16386 55.0641C6.81698 53.6724 6.21883 52.5233 5.463 51.7965C4.92693 51.2808 4.30974 51.0911 3.70662 51.2568C3.10351 51.4224 2.54801 51.9343 2.12578 52.7132C1.70355 53.4922 1.43804 54.495 1.37025 55.5671C1.30246 56.6392 1.43613 57.721 1.75066 58.6455C2.2431 59.8088 2.79786 60.8855 3.40719 61.8607C3.77379 62.4163 4.24058 62.7223 4.72349 62.7234Z" fill="#1D266C"/>
<path d="M-66.9947 299.794C-68.7486 300.091 -70.5184 299.766 -72.2002 298.837C-73.8819 297.909 -75.4417 296.395 -76.7879 294.386C-78.1341 292.377 -79.2395 289.913 -80.0392 287.138C-80.8389 284.363 -81.3168 281.334 -81.4447 278.228C-81.7304 271.894 -80.603 265.613 -78.3037 260.729C-76.0043 255.844 -72.7152 252.743 -69.1393 252.087C-65.6269 251.481 -62.0814 252.124 -58.7118 253.978C-55.3421 255.832 -52.2165 258.859 -49.5191 262.881C-46.8217 266.903 -44.6071 271.839 -43.0058 277.397C-41.4044 282.955 -40.4487 289.024 -40.195 295.245C-39.616 307.916 -41.8678 320.484 -46.468 330.257C-51.0682 340.029 -57.6509 346.228 -64.8058 347.527C-70.076 348.441 -75.3963 347.48 -80.4529 344.701C-85.5095 341.921 -90.2 337.38 -94.2474 331.345C-98.2949 325.31 -101.617 317.903 -104.019 309.561C-106.42 301.219 -107.852 292.112 -108.23 282.776C-109.097 263.753 -105.712 244.887 -98.7989 230.225C-91.8862 215.564 -81.9974 206.276 -71.2543 204.354C-64.2376 203.161 -57.1568 204.459 -50.428 208.172C-43.6992 211.885 -37.4583 217.937 -32.0719 225.974C-26.6856 234.011 -22.2626 243.87 -19.0628 254.971C-15.8631 266.073 -13.9512 278.192 -13.4396 290.618C-12.3059 315.942 -16.8222 341.044 -26.023 360.559C-35.2237 380.074 -48.3789 392.454 -62.676 395.051C-71.445 396.545 -80.2945 394.925 -88.7041 390.286C-97.1137 385.647 -104.914 378.083 -111.645 368.039C-118.377 357.995 -123.904 345.673 -127.902 331.798C-131.9 317.924 -134.288 302.776 -134.926 287.246C-137.884 221.424 -110.345 162.999 -73.3989 156.726C-62.876 154.938 -52.2571 156.887 -42.1665 162.457C-32.076 168.028 -22.7174 177.108 -14.6411 189.164C-6.56473 201.22 0.0664039 216.008 4.8624 232.659C9.65841 249.309 12.5225 267.487 13.2863 286.122C16.8359 365.093 -16.294 435.124 -60.561 442.758" stroke="#1D266C" stroke-width="2" stroke-miterlimit="2.61"/>
<path fill-rule="evenodd" clip-rule="evenodd" d="M3.86472 236.768C5.34374 234.677 4.66338 235.252 5.2402 233.997C5.37847 234.146 5.53232 234.243 5.69246 234.284C5.8526 234.324 6.01573 234.307 6.17198 234.233C7.45873 233.814 7.82845 232.638 8.77502 230.704C9.23414 229.75 9.65899 228.746 10.047 227.697C10.8615 225.822 11.5421 223.776 12.0732 221.607C11.4636 221.531 10.851 221.611 10.254 221.842C10.0174 221.842 9.8695 221.999 9.61807 222.077C9.36664 222.156 8.84899 222.339 8.42007 222.495C7.99116 222.652 7.99117 222.652 7.7841 222.731L4.63379 224.351C4.17693 224.63 3.75879 225.078 3.40695 225.663C3.05511 226.249 2.77758 226.96 2.59274 227.75C2.25081 227.52 1.88142 227.447 1.51923 227.538C1.15704 227.63 0.813946 227.883 0.52213 228.273C-0.56017 229.981 -1.50558 231.942 -2.28799 234.102L-2.86483 235.566C-3.4669 237 -3.96385 238.564 -4.34385 240.219C-3.34835 240.148 -2.3584 239.921 -1.38581 239.539C0.0100429 239.072 1.38818 238.452 2.74065 237.683C3.12452 237.476 3.48852 237.167 3.82035 236.768" fill="#1D266C"/>
<path d="M7.54728 60.03C-9.34309 192.459 55.2455 170.03 44.2417 124.389" stroke="#1D266C" stroke-width="2" stroke-miterlimit="2.61"/>
<path fill-rule="evenodd" clip-rule="evenodd" d="M14.778 148.857C14.2807 148.811 13.7979 148.544 13.3745 148.081C12.9511 147.617 12.6007 146.973 12.3559 146.206C12.111 145.44 11.9796 144.576 11.9738 143.696C11.9681 142.816 12.0881 141.948 12.3229 141.171C12.6724 139.781 13.2768 138.639 14.0385 137.93C14.5746 137.414 15.1918 137.224 15.7949 137.39C16.398 137.556 16.9535 138.067 17.3757 138.846C17.798 139.625 18.0634 140.628 18.1312 141.7C18.199 142.773 18.0653 143.854 17.7508 144.779C17.2584 145.942 16.7037 147.019 16.0943 147.994C15.7227 148.534 15.2591 148.838 14.778 148.857Z" fill="#1D266C"/>
<path fill-rule="evenodd" clip-rule="evenodd" d="M46.2248 136.074C48.1327 120.573 39.1255 107.868 29.7486 102.405C36.7443 118.717 25.3115 132.519 33.1355 144.23C38.6522 152.36 44.7901 147.811 46.2248 136.126" fill="#1D266C"/>
<path d="M174.083 70.958C157.193 203.387 221.782 180.958 210.778 135.316" stroke="#1D266C" stroke-width="2" stroke-miterlimit="2.61"/>
<path fill-rule="evenodd" clip-rule="evenodd" d="M181.317 159.783C180.822 159.735 180.341 159.468 179.92 159.006C179.498 158.545 179.149 157.903 178.905 157.14C178.66 156.377 178.528 155.518 178.521 154.642C178.513 153.765 178.631 152.899 178.862 152.124C179.207 150.721 179.812 149.569 180.578 148.856C181.114 148.341 181.731 148.151 182.334 148.317C182.937 148.482 183.493 148.994 183.915 149.773C184.337 150.552 184.603 151.555 184.67 152.627C184.738 153.699 184.604 154.781 184.29 155.705C183.797 156.869 183.243 157.945 182.633 158.921C182.262 159.461 181.798 159.765 181.317 159.783Z" fill="#1D266C"/>
<path fill-rule="evenodd" clip-rule="evenodd" d="M212.715 147.001C214.623 131.5 205.616 118.795 196.239 113.332C203.234 129.644 191.802 143.446 199.626 155.157C205.142 163.287 211.28 158.738 212.715 147.054" fill="#1D266C"/>
</g>
</g>
</g>
</svg>
