<svg width="21" height="20" viewBox="0 0 21 20" fill="none" xmlns="http://www.w3.org/2000/svg">
<path fill-rule="evenodd" clip-rule="evenodd" d="M11.7883 0.873092L13.9203 5.1323C14.1292 5.55043 14.5325 5.84037 15.0002 5.90746L19.7696 6.59397C20.9479 6.7641 21.4168 8.19222 20.564 9.01052L17.1152 12.3244C16.7763 12.6503 16.622 13.1188 16.7022 13.5788L17.5161 18.2574C17.7165 19.4147 16.4847 20.2977 15.4315 19.7502L11.1687 17.5397C10.7509 17.3229 10.2504 17.3229 9.83125 17.5397L5.5685 19.7502C4.51527 20.2977 3.28346 19.4147 3.48512 18.2574L4.29782 13.5788C4.378 13.1188 4.22372 12.6503 3.88479 12.3244L0.43596 9.01052C-0.416832 8.19222 0.052082 6.7641 1.23044 6.59397L5.99976 5.90746C6.46746 5.84037 6.87199 5.55043 7.08094 5.1323L9.2117 0.873092C9.73892 -0.180028 11.2611 -0.180028 11.7883 0.873092Z" fill="#2B39A1"/>
</svg>
