<svg width="49" height="67" viewBox="0 0 49 67" fill="none" xmlns="http://www.w3.org/2000/svg">
<path fill-rule="evenodd" clip-rule="evenodd" d="M40.4939 18.9566C37.9418 21.5254 33.7482 25.0246 37.0911 28.6209C39.9547 31.692 43.6211 34.1637 43.0819 38.131C43.05 38.4995 42.9407 38.8581 42.7606 39.1856C42.5805 39.5131 42.3333 39.8029 42.0335 40.0376C42.0335 40.0376 40.2363 40.2374 39.4874 38.7875C39.4874 38.7875 39.6252 38.0112 39.1639 38.0112C39.1639 38.0112 35.2519 42.4466 32.8376 41.5789C30.2795 40.6085 32.7537 36.8524 33.5265 35.0257C33.5265 35.0257 34.7906 31.926 32.7537 30.91C30.4053 29.7683 27.0444 33.2618 25.8462 34.7174C23.9817 36.9161 21.8318 38.8802 19.448 40.5628L21.2932 42.5208C22.5296 41.409 23.6659 40.2003 24.69 38.9074C25.5587 37.8456 26.8707 35.0828 28.4642 35.9961C29.3868 36.527 29.5306 37.857 29.3269 38.7704C28.8896 40.6827 24.2946 46.3968 29.5486 46.842C30.6689 46.9334 32.3643 46.6537 34.3413 44.9126C34.7444 44.5334 35.2793 44.308 35.845 44.279C37.169 46.8306 43.8787 43.0631 46.7364 38.2395C52.4636 28.5695 38.1155 24.7449 40.8593 19.9156C40.994 19.7152 41.07 19.484 41.0795 19.2462C41.089 19.0083 41.0316 18.7724 40.9132 18.5627C40.7576 18.6777 40.6168 18.81 40.4939 18.9566Z" fill="white"/>
<path fill-rule="evenodd" clip-rule="evenodd" d="M19.9339 55.1247C19.5805 55.6955 19.1371 57.7734 20.9284 55.8497C22.6291 53.9739 23.9805 51.8348 24.9243 49.5248C24.9243 49.5248 25.9667 46.3852 21.9289 42.7433C21.9289 42.7433 17.8012 39.4039 17.7652 36.8008C17.7652 36.8008 16.6689 32.8849 20.1616 27.8615C20.1616 27.8615 23.6722 21.9534 18.8196 22.1531L6.20286 22.5756C4.60929 22.6269 4.40561 22.4386 3.28532 23.7914L0.799114 26.9824C0.799114 26.9824 -0.315183 28.2497 1.75765 27.9757C11.1094 26.6399 16.1357 30.5445 10.6181 38.599C7.54483 43.08 3.31527 47.3157 2.96181 54.0572C2.56042 61.6893 8.00613 64.652 14.8297 66.0049C29.1778 68.8591 46.3117 62.46 48.3785 47.1672C48.6182 45.4547 48.5642 44.9923 47.6536 46.8533C44.3946 53.5092 39.8955 59.2918 28.6566 60.1937C28.6566 60.1937 14.7399 62.4257 8.82088 55.3702C5.52591 51.0718 9.21627 41.847 13.1942 38.9129C13.2601 38.9129 13.3739 40.42 13.7933 42.1724C15.267 48.1948 22.3902 48.2119 19.904 55.1304" fill="white"/>
<path fill-rule="evenodd" clip-rule="evenodd" d="M4.64033 31.7255C7.37216 30.5838 10.6312 32.7929 8.55835 35.7213C7.92517 36.67 7.11262 37.4985 6.16201 38.1645C5.89242 38.3415 4.36474 39.3404 5.06567 38.1188C6.64726 35.2989 4.4666 34.768 1.98638 34.9336C-1.54224 35.1733 3.78363 32.0794 4.61636 31.7312" fill="white"/>
<path fill-rule="evenodd" clip-rule="evenodd" d="M35.0203 20.1458C34.8166 21.8583 34.0138 25.8085 31.3838 24.4842C31.2341 25.4375 29.3649 27.2471 26.9566 26.368C25.8004 26.465 24.6142 27.5096 23.5658 28.5714C22.8888 29.2621 23.0566 29.1422 22.5413 29.6674C21.9962 30.2953 20.6063 30.8548 22.1339 29.2393C22.3796 28.971 22.4934 28.794 23.0266 28.1376C23.2483 27.8636 24.1229 26.8075 24.704 25.9398C25.2851 25.0722 26.2736 22.3436 27.6995 23.0057C28.6939 23.4738 27.7354 24.7925 29.0055 24.6383C30.2755 24.4842 30.0838 22.5776 31.288 22.8859C32.4922 23.1941 32.5161 23.999 32.7797 23.4567C33.0433 22.9144 32.594 20.945 34.577 20.3057L34.9664 20.1401L35.0203 20.1458Z" fill="white"/>
<path fill-rule="evenodd" clip-rule="evenodd" d="M27.345 11.3131C27.7644 11.7184 30.1367 13.9847 31.1372 14.2986C31.5354 14.5185 32 14.603 32.4552 14.5384C32.4552 14.5384 33.3538 14.4128 32.7068 15.1377C32.7068 15.1377 31.6105 16.3251 30.616 17.1756C29.0284 18.5285 27.7344 18.9909 26.051 17.6323L23.7265 15.7657C23.7265 15.7657 23.1274 15.2291 22.7919 15.623C22.5583 15.8855 21.2942 16.9188 20.4855 17.5809C19.2034 18.6256 17.5379 19.2934 15.9923 18.4543C15.6748 18.2831 14.9319 17.678 14.3448 17.267C12.901 16.2395 12.8112 15.2919 13.9075 14.2587C14.884 13.3339 16.22 12.1808 16.22 12.1808C16.2842 12.1211 16.3608 12.0749 16.4448 12.0449C16.5289 12.015 16.6185 12.002 16.7081 12.0068C16.7977 12.0116 16.8852 12.0342 16.9652 12.073C17.0451 12.1118 17.1157 12.166 17.1725 12.2322C17.9585 12.9596 18.8061 13.624 19.7066 14.2187C20.0436 14.5121 20.468 14.6983 20.921 14.7515C21.374 14.8047 21.8332 14.7222 22.2348 14.5155C23.5588 13.899 25.0205 12.2322 26.1948 11.3531C26.2663 11.2765 26.3533 11.2146 26.4506 11.1709C26.5479 11.1273 26.6534 11.1029 26.7609 11.0991C26.8684 11.0954 26.9755 11.1124 27.0759 11.1492C27.1763 11.186 27.2678 11.2417 27.345 11.3131Z" fill="white"/>
<path fill-rule="evenodd" clip-rule="evenodd" d="M18.3641 6.50068C17.8585 7.95738 17.7717 9.51649 18.1124 11.016C18.7475 13.1909 20.8982 14.441 23.1148 13.2651C24.8701 12.3518 25.8466 10.1027 23.618 7.7451C22.0904 6.12963 21.8807 3.01287 22.8272 1.10056C22.8272 1.10056 23.5581 -0.857416 22.0245 0.449801C20.4908 1.75702 18.9212 4.66258 18.3641 6.50068Z" fill="white"/>
</svg>
