<svg width="22" height="23" viewBox="0 0 22 23" fill="none" xmlns="http://www.w3.org/2000/svg">
<g clip-path="url(#clip0_155_59)">
<path d="M10.8121 22.3869L9.7275 21.1055C8.78115 21.3103 7.80804 21.3739 6.84185 21.2941C5.98989 21.1674 5.17309 20.8754 4.44039 20.4358C5.35054 20.458 6.26111 20.4126 7.1641 20.3C7.62614 20.2058 8.09599 20.152 8.56798 20.1394V19.5501C8.56798 19.5501 4.91159 17.2439 4.29727 13.1145C4.08406 11.6813 3.93413 9.6938 4.44039 8.28706C5.10367 6.55509 6.14076 4.98005 7.48246 3.66706C7.48246 3.66706 4.79412 7.07989 5.46815 11.3429C6.14218 15.6058 9.7275 18.1 9.7275 18.1L9.50034 4.15514L10.8143 3.0388V3.15163L12.1273 4.26734L11.9002 18.2122C11.9002 18.2122 15.4884 15.7205 16.1595 11.4569C16.8306 7.19334 14.1452 3.77894 14.1452 3.77894C15.4869 5.09194 16.524 6.66698 17.1873 8.39894C17.6935 9.80537 17.5443 11.7932 17.3304 13.2264C16.7132 17.3561 13.0577 19.6623 13.0577 19.6623V20.2525C13.5297 20.2652 13.9996 20.3189 14.4616 20.4131C15.3643 20.5251 16.2746 20.5699 17.1844 20.547C16.4517 20.9867 15.6349 21.2786 14.7829 21.4053C13.8167 21.4857 12.8435 21.4221 11.8973 21.2168L10.8121 22.5V22.3869ZM20.1839 10.884C19.5845 6.86491 15.5449 3.35246 15.5449 3.35246C15.5449 3.35246 21.0751 5.10334 21.8948 10.6043C22.1441 12.1677 21.9582 13.7671 21.3565 15.2378C20.7548 16.7085 19.759 17.9971 18.4717 18.9709C18.4717 18.9709 20.783 14.9009 20.1839 10.8827V10.884ZM0.105422 10.6043C0.924515 5.10334 6.45599 3.35246 6.45599 3.35246C6.45599 3.35246 2.41569 6.86491 1.8176 10.8827C1.21951 14.9006 3.52783 18.9709 3.52783 18.9709C2.24067 17.997 1.24498 16.7084 0.643396 15.2377C0.0418121 13.767 -0.143894 12.1676 0.105422 10.6043ZM10.9844 2.18143V0.971429C10.9844 0.971429 11.2868 2.23391 12.816 1.88286C14.3451 1.5318 14.3782 0.5 14.3782 0.5C14.3782 0.5 14.4399 1.96897 13.3144 2.41337C13.0504 2.51556 12.7683 2.56691 12.484 2.56454C11.9602 2.55272 11.4466 2.42169 10.9847 2.18206L10.9844 2.18143ZM8.65431 2.41274C7.52919 1.96897 7.59182 0.5 7.59182 0.5C7.59182 0.5 7.61648 1.5318 9.14661 1.88286C10.6767 2.23391 10.9847 0.971429 10.9847 0.971429V2.18206C10.5228 2.42185 10.009 2.55298 9.48508 2.56486C9.20062 2.56716 8.91843 2.51571 8.65431 2.41337V2.41274Z" fill="#26328D"/>
</g>
<defs>
<clipPath id="clip0_155_59">
<rect width="22" height="22" fill="white" transform="translate(0 0.5)"/>
</clipPath>
</defs>
</svg>
