<svg width="75" height="90" viewBox="0 0 75 90" fill="none" xmlns="http://www.w3.org/2000/svg">
<path fill-rule="evenodd" clip-rule="evenodd" d="M53.0849 20.1795C50.505 22.9065 46.2163 26.6407 49.628 30.471C52.5418 33.7412 56.2589 36.3721 55.7214 40.5928C55.6885 40.9852 55.5774 41.367 55.3948 41.7158C55.2121 42.0647 54.9615 42.3734 54.6578 42.624C54.6578 42.624 52.8077 42.8333 52.0722 41.2887C52.0722 41.2887 52.2136 40.4627 51.7497 40.4627C51.7497 40.4627 47.7892 45.187 45.328 44.2647C42.7368 43.2294 45.2432 39.2293 46.024 37.283C46.024 37.283 47.314 33.9845 45.2432 32.9039C42.8613 31.6648 39.4496 35.4103 38.2388 36.9605C36.3441 39.2999 34.1618 41.3909 31.7437 43.1841L33.6164 45.2662C34.8681 44.0821 36.0206 42.7972 37.062 41.4245C37.9446 40.293 39.2742 37.3452 40.8923 38.324C41.8259 38.8898 41.9786 40.2986 41.7636 41.2718C41.328 43.3086 36.6716 49.3964 41.99 49.866C43.1215 49.9678 44.8528 49.6679 46.8443 47.8122C46.8443 47.8122 47.6421 47.0484 48.3663 47.1389C49.7072 49.8603 56.5192 45.8433 59.416 40.706C65.2266 30.4144 50.6747 26.3408 53.4527 21.1979C53.5914 20.9849 53.6699 20.7383 53.6798 20.4843C53.6898 20.2303 53.6309 19.9783 53.5092 19.7551C53.3513 19.8791 53.2089 20.0215 53.0849 20.1795Z" fill="white"/>
<path fill-rule="evenodd" clip-rule="evenodd" d="M32.2248 58.6875C31.8627 59.2872 31.4157 61.5164 33.2318 59.4569C33.2318 59.4569 36.0607 56.2659 37.2828 52.7241C37.2828 52.7241 38.3465 49.386 34.2672 45.5048C34.2672 45.5048 30.0804 41.946 30.0465 39.1794C30.0465 39.1794 28.9149 35.0096 32.451 29.6573C32.451 29.6573 36.0098 23.3715 31.0875 23.5864L18.2896 24.0334C16.6714 24.09 16.4508 23.8863 15.3306 25.3291L12.8128 28.7237C12.8128 28.7237 11.6812 30.0703 13.786 29.7817C23.2684 28.3616 28.3888 32.5145 22.7762 41.0974C19.6531 45.8612 15.3645 50.3762 15.0081 57.5503C14.6007 65.6749 20.1001 68.8319 27.0478 70.2747C41.6054 73.3016 58.9862 66.4952 61.1022 50.2121C61.3398 48.362 61.2889 47.8924 60.361 49.8783C57.0625 56.9618 52.4967 63.1175 41.1245 64.0794C41.1245 64.0794 26.98 66.45 20.9997 58.9421C17.6502 54.3649 21.3957 44.543 25.4354 41.4029C25.4976 41.4029 25.6164 43.0097 26.0521 44.8768C27.5514 51.2814 34.7707 51.304 32.2757 58.6705" fill="white"/>
<path fill-rule="evenodd" clip-rule="evenodd" d="M16.7109 33.7758C19.4832 32.5481 22.7591 34.9074 20.6714 38.0248C20.0356 39.0304 19.2206 39.9107 18.2668 40.6218C17.9952 40.8085 16.4563 41.8778 17.1352 40.5765C18.742 37.5722 16.5242 37.0064 14.0121 37.1818C10.4307 37.4364 15.8169 34.1549 16.6826 33.7872" fill="white"/>
<path fill-rule="evenodd" clip-rule="evenodd" d="M47.5291 21.4409C47.3197 23.2854 46.505 27.4721 43.8402 26.0577C43.6874 27.0761 41.792 28.9997 39.3479 28.0662C38.1767 28.168 36.9716 29.26 35.9079 30.4085C35.2233 31.1497 35.3931 31.0309 34.8669 31.574C34.3011 32.2473 32.9036 32.8414 34.4539 31.1214C34.7085 30.8385 34.8216 30.6518 35.3591 29.9503C35.5854 29.6617 36.4907 28.5358 37.0565 27.6079C37.6222 26.68 38.6519 23.7832 40.089 24.4848C41.1018 24.9827 40.1286 26.3915 41.413 26.2274C42.6973 26.0633 42.5106 24.0322 43.7327 24.3603C44.9547 24.6885 44.9717 25.5428 45.2433 24.9827C45.5149 24.4226 45.0566 22.3122 47.0651 21.6276L47.4668 21.4522L47.5291 21.4409Z" fill="white"/>
<path fill-rule="evenodd" clip-rule="evenodd" d="M39.7495 12.0433C40.1738 12.4677 42.5784 14.8723 43.5968 15.2174C44.0021 15.4513 44.4748 15.5411 44.9377 15.472C44.9377 15.472 45.8429 15.3362 45.1866 16.1113C44.5178 16.8702 43.8096 17.5936 43.0649 18.2782C41.4525 19.721 40.1455 20.2132 38.4312 18.7705L36.0776 16.7789C36.0776 16.7789 35.5118 16.2132 35.1327 16.6262C34.8951 16.9034 33.6108 18.0123 32.7904 18.7082C31.4891 19.8398 29.7974 20.5131 28.2359 19.6418C27.9077 19.4607 27.1552 18.8214 26.5385 18.3744C25.0731 17.2881 24.9826 16.2754 26.0915 15.1721C27.0873 14.1877 28.4395 12.9599 28.4395 12.9599C28.5052 12.8966 28.5834 12.8477 28.669 12.8163C28.7547 12.7849 28.846 12.7718 28.937 12.7776C29.028 12.7835 29.1168 12.8082 29.1978 12.8503C29.2787 12.8924 29.3499 12.951 29.407 13.0221C30.2063 13.7944 31.0673 14.5002 31.9813 15.1325C32.3247 15.4392 32.7535 15.6338 33.2105 15.6904C33.6674 15.7471 34.1307 15.6629 34.5386 15.4493C35.8795 14.793 37.3676 13.0448 38.5557 12.083C38.629 12.0018 38.7178 11.9362 38.817 11.8901C38.9162 11.844 39.0236 11.8184 39.1329 11.8147C39.2422 11.811 39.3511 11.8293 39.4531 11.8686C39.5552 11.9079 39.6483 11.9673 39.7269 12.0433" fill="white"/>
<path fill-rule="evenodd" clip-rule="evenodd" d="M30.6291 6.92356C30.1145 8.47298 30.0284 10.1327 30.3801 11.727C31.0251 14.0467 33.209 15.348 35.4722 14.1203C37.2544 13.1528 38.2445 10.7596 35.987 8.24749C34.4368 6.55015 34.2218 3.21204 35.1836 1.16958C35.1836 1.16958 35.9248 -0.912497 34.3689 0.479324C32.813 1.87114 31.2231 4.96596 30.6517 6.92356" fill="white"/>
<path fill-rule="evenodd" clip-rule="evenodd" d="M49.8395 86.4412C49.7813 86.4412 49.8104 86.4412 49.8104 86.3831C49.8104 86.4412 49.8104 86.354 49.7581 86.4412C49.8395 86.4935 49.8104 86.4412 49.8395 86.4412Z" fill="#172B75"/>
<path fill-rule="evenodd" clip-rule="evenodd" d="M57.3284 80.0509C56.7966 80.7524 56.4062 80.6902 56.1346 80.9618C56.3421 80.9803 56.5511 80.9572 56.7495 80.8938C56.9478 80.8303 57.1315 80.7278 57.2896 80.5923C57.4478 80.4568 57.5772 80.2911 57.6704 80.1048C57.7635 79.9186 57.8185 79.7155 57.832 79.5077C57.7641 79.3606 57.5151 79.3719 57.2662 79.1909C57.3228 78.6817 57.7867 78.5402 57.7132 78.0593C57.4616 78.2443 57.2534 78.4818 57.1029 78.7554C56.9524 79.029 56.8634 79.332 56.8419 79.6435C56.9154 79.9321 57.1191 79.8868 57.3228 80.0622" fill="white"/>
<path fill-rule="evenodd" clip-rule="evenodd" d="M63.2126 85.1091C62.6781 84.9327 62.1317 84.7946 61.5775 84.6961C60.9608 84.7753 60.825 85.4486 60.3724 85.7428C59.9197 86.037 58.8448 86.0087 58.675 84.7244C58.5885 83.8 58.6516 82.8677 58.8617 81.9634C58.9523 81.5504 59.2578 81.4316 59.535 81.16C61.1418 79.7908 65.7586 77.2731 66.8222 75.7964C66.9467 75.638 67.2919 74.7044 67.1504 74.563C66.2112 75.6945 64.3215 76.8261 62.6242 77.9577C61.276 78.7099 60.0758 79.701 59.0824 80.8828C58.8314 81.2904 58.6229 81.7226 58.46 82.1727C58.135 83.2482 57.999 84.3719 58.0583 85.4939C58.0583 86.0596 58.0583 86.6254 57.6566 86.9423C57.5564 87.0227 57.4376 87.0768 57.3111 87.0995C57.1846 87.1222 57.0544 87.1129 56.9324 87.0724C56.6382 86.9706 56.5873 86.8631 56.2082 86.9706C55.4331 87.1573 54.6523 88.4699 54.5731 89.0583C54.6523 89.03 54.6806 89.0074 54.7881 88.8716C54.9558 88.6157 55.2148 88.4336 55.5123 88.3624C56.0781 88.2549 56.0781 88.7641 56.7966 88.4982C57.1637 88.347 57.4812 88.0962 57.7132 87.774C58.03 87.3157 58.1375 86.8857 58.279 86.699C58.3865 86.8065 58.6015 87.559 59.354 87.3723C59.9707 87.2082 60.3441 86.2973 60.6383 85.9748C60.842 85.7711 60.9268 85.839 61.2041 86.0087C61.7872 86.3561 62.4333 86.5849 63.1051 86.682C66.6752 87.2817 69.108 85.5504 72.1576 84.1303C72.6951 83.8871 72.91 83.9945 73.2552 83.4061C73.3716 83.195 73.4628 82.971 73.5268 82.7385V82.5235C72.8106 82.7209 72.1279 83.0241 71.5013 83.4231C69.0288 84.8093 65.9396 85.7768 63.1843 85.1205" fill="white"/>
<path fill-rule="evenodd" clip-rule="evenodd" d="M49.8376 86.4377C49.8093 86.4377 49.8376 86.4886 49.7584 86.4377C49.7584 86.3529 49.7584 86.4377 49.8093 86.3812C50.1827 86.0587 50.5901 85.012 49.3001 84.9328C48.5759 84.8818 47.7216 85.2552 47.5575 85.9285C48.0667 85.9285 48.4967 86.0077 48.6042 86.4604C48.3609 86.635 48.0757 86.7422 47.7776 86.771C47.4795 86.7998 47.1791 86.7493 46.9069 86.6244C46.4203 86.3302 46.3411 85.6852 46.3411 84.961C46.3534 84.2796 46.4063 83.5994 46.4995 82.9242C46.4995 82.6017 46.5843 82.2792 46.607 81.9341C46.6353 81.6908 46.771 81.1024 46.607 80.9666C46.5278 81.1533 46.4995 81.3966 46.4203 81.5324C46.0468 82.7432 46.0978 82.0982 45.9394 83.4617C45.7948 84.4563 45.7323 85.4612 45.7526 86.466C45.8036 87.326 46.0186 88.3444 47.1162 88.2878C47.8404 88.2369 48.5929 87.5127 48.9663 86.9243C49.962 87.3769 50.6636 86.6527 50.9804 85.606C51.0541 85.7888 51.1531 85.9602 51.2747 86.1152C51.3971 86.2527 51.553 86.356 51.7273 86.4151C51.962 86.4696 52.2085 86.4395 52.4232 86.3302C53.0682 85.9568 53.1474 85.2326 53.6566 85.2326C54.0357 85.2326 54.2224 85.5551 54.7316 84.9101C54.9183 84.6725 55.1842 84.1633 55.4275 84.0558C55.8858 83.8125 56.2026 84.4575 56.6043 83.9992C56.7684 83.7842 57.1701 83.3316 57.0117 82.9016C56.8812 82.649 56.7175 82.415 56.5251 82.2057C56.4564 82.1361 56.4025 82.0534 56.3667 81.9624C56.1581 82.2276 55.9956 82.526 55.8858 82.845C55.7952 82.8566 55.7088 82.8899 55.6339 82.9421C55.5591 82.9944 55.498 83.0639 55.4558 83.1449C55.1616 83.5466 54.89 84.2765 54.4091 84.3217C54.1658 84.3217 54.0357 84.1633 53.8433 84.2142C53.6672 84.2692 53.5154 84.383 53.4133 84.5367C53.2682 84.6753 53.0934 84.7789 52.9022 84.8397C52.7111 84.9005 52.5085 84.9168 52.3101 84.8875C51.4274 84.78 51.3482 83.7559 51.3992 82.8224C51.3992 82.3641 51.4557 81.9115 51.5067 81.4532C51.5632 81.159 51.7216 80.3216 51.5632 80.1123C51.4637 80.3568 51.3824 80.6083 51.3199 80.8648C51.2476 81.116 51.1626 81.3633 51.0653 81.606C50.7994 82.4094 50.9069 84.6895 50.7711 85.3288C50.6353 85.8154 50.3128 86.3472 49.8602 86.4321" fill="white"/>
<path fill-rule="evenodd" clip-rule="evenodd" d="M41.2264 87.4966C39.2179 87.4966 39.0199 85.7653 39.6196 84.2603C39.7441 83.9322 40.1854 83.208 40.0948 83.0269L40.0213 83.1061C39.728 83.5937 39.4598 84.0961 39.2179 84.6111C38.9365 85.2623 38.7829 85.9614 38.7653 86.6705C38.7653 87.8474 39.331 88.7753 40.3721 88.9337C43.7667 89.2562 45.4641 85.3919 45.3905 82.4329V81.4541C45.3905 81.1768 45.4641 80.9731 45.4641 80.7468C45.3679 80.7977 45.2661 81.075 45.2151 81.1768C44.887 81.9519 44.7908 81.901 44.887 82.8742C44.9662 85.1882 43.7555 87.5192 41.249 87.5192" fill="white"/>
<path fill-rule="evenodd" clip-rule="evenodd" d="M68.3839 81.5332C68.2481 81.1881 67.903 81.1032 67.5522 80.9165C67.3789 81.0937 67.2182 81.2827 67.0713 81.4823C66.9864 81.5898 66.9072 81.6746 66.828 81.7765C66.7561 81.8906 66.6747 81.9985 66.5847 82.099C66.8851 82.218 67.1655 82.382 67.4164 82.5855C67.8747 82.5855 68.2764 82.099 68.4122 81.6973C68.6689 81.796 68.905 81.9418 69.1081 82.1273C69.7474 82.1273 70.7149 80.8656 69.2382 80.4639C69.1307 80.5714 68.729 81.0806 68.5989 81.2446C68.5325 81.3374 68.4607 81.4262 68.3839 81.5106" fill="white"/>
<path fill-rule="evenodd" clip-rule="evenodd" d="M41.3169 83.4619C41.6822 83.6332 42.0243 83.8499 42.3353 84.1069C42.3602 84.1599 42.397 84.2064 42.4428 84.2427C42.6489 84.1213 42.827 83.9578 42.9654 83.7628C43.1039 83.5678 43.1996 83.3457 43.2462 83.1112C43.2462 82.8962 42.9237 82.6529 42.8162 82.5454C42.6142 82.406 42.398 82.2884 42.1712 82.1946C41.8542 82.6003 41.5686 83.0297 41.3169 83.4789" fill="white"/>
<path fill-rule="evenodd" clip-rule="evenodd" d="M60.8646 89.062C61.2048 88.8357 61.4519 88.4941 61.5605 88.1002C61.6171 87.6702 61.1079 87.3194 60.7571 87.2402C60.6711 87.3326 60.5917 87.4309 60.5195 87.5344C60.3837 87.7211 59.9028 88.2869 59.8462 88.4171C60.0482 88.4764 60.2393 88.5681 60.412 88.6886C60.5743 88.7986 60.7258 88.9236 60.8646 89.062Z" fill="white"/>
<path fill-rule="evenodd" clip-rule="evenodd" d="M47.8008 82.119C48.0883 82.2318 48.3588 82.3842 48.6042 82.5717C48.7117 82.6565 48.7117 82.7074 48.8192 82.7867C49.1594 82.5603 49.4065 82.2188 49.5151 81.8248C49.566 81.3383 48.9493 81.0214 48.7117 80.9648L48.2534 81.5306C48.1742 81.6381 48.1233 81.7173 48.0384 81.8248C47.968 81.9296 47.8884 82.0281 47.8008 82.119Z" fill="white"/>
<path fill-rule="evenodd" clip-rule="evenodd" d="M50.7993 88.3951C51.0014 88.4544 51.1924 88.5461 51.3651 88.6667C51.4398 88.7259 51.5193 88.7789 51.6027 88.8251C51.6671 88.9037 51.7391 88.9757 51.8177 89.0401C52.1579 88.8137 52.405 88.4722 52.5136 88.0783C52.5702 87.6483 52.061 87.2975 51.7102 87.2183C51.6248 87.3055 51.5524 87.4046 51.4952 87.5125L50.7993 88.3951Z" fill="white"/>
<path fill-rule="evenodd" clip-rule="evenodd" d="M67.4728 80.4339C67.7712 80.5254 68.0456 80.6819 68.2762 80.8922C68.6186 80.7111 68.8985 80.4312 69.0796 80.0888C69.2946 79.5513 68.7627 79.3929 68.412 79.2571C68.3045 79.3363 68.0386 79.7097 67.9311 79.8229C67.8568 79.9264 67.7755 80.0247 67.6878 80.1171C67.6241 80.2297 67.5522 80.3374 67.4728 80.4396" fill="white"/>
<path fill-rule="evenodd" clip-rule="evenodd" d="M51.3367 78.1535C51.167 78.2328 51.1387 78.5609 50.8162 78.5439C50.2957 78.5439 50.4484 78.1422 50.3919 78.0687C50.2221 77.9612 50.1033 78.3629 50.0637 78.493C49.9845 78.7193 49.8996 78.94 50.0637 79.138C50.141 79.2185 50.2385 79.2767 50.346 79.3065C50.4535 79.3364 50.567 79.3368 50.6748 79.3077C50.7755 79.2914 50.8708 79.251 50.9526 79.1899C51.0343 79.1288 51.1001 79.0489 51.1444 78.957C51.1997 79.0187 51.2698 79.0654 51.348 79.0927C51.4502 79.1186 51.5571 79.1186 51.6592 79.0927C51.8258 79.0509 51.9769 78.962 52.0943 78.8366C52.2117 78.7111 52.2905 78.5545 52.3212 78.3855C52.4117 77.9838 52.1628 77.6953 52.0949 77.9216C52.0758 77.977 52.0606 78.0337 52.0496 78.0913C52.0496 78.2214 51.9987 78.3007 51.8968 78.3459C51.8203 78.3827 51.7345 78.3954 51.6506 78.3822C51.5667 78.3691 51.4888 78.3308 51.4273 78.2724L51.3876 78.2101C51.3876 78.2101 51.3876 78.1818 51.3876 78.1762C51.3876 78.1705 51.3876 78.1762 51.3876 78.1366" fill="white"/>
<path fill-rule="evenodd" clip-rule="evenodd" d="M63.2126 83.389C63.4049 83.389 63.7444 83.0212 63.8236 82.9307C63.9705 82.7247 64.0762 82.4922 64.1348 82.2461C64.214 81.9958 64.2004 81.7254 64.0965 81.4844C63.9926 81.2433 63.8053 81.0477 63.569 80.9335C63.5294 80.9335 63.5238 80.9335 63.5125 80.8599C63.5011 80.7864 65.487 79.6888 65.6171 79.6096C65.7473 79.5304 65.951 79.4059 66.1207 79.2871C66.4336 79.0737 66.6931 78.791 66.8789 78.461C66.9249 78.3804 66.9664 78.2973 67.0033 78.2121C67.0373 78.1159 67.0938 78.0141 67.0033 77.9292C66.9354 77.9292 66.2961 78.4441 66.1886 78.5289C65.9057 78.7383 65.6228 78.9193 65.323 79.0947C65.0231 79.2701 64.3045 79.7567 64.0386 79.966C63.7727 80.1754 63.388 80.4582 63.2466 80.6053C63.1028 80.796 62.9723 80.9964 62.8562 81.2051C62.8084 81.2751 62.7703 81.3512 62.743 81.4314C62.6298 81.8161 63.139 81.5785 63.4955 81.9519C63.6315 82.1085 63.7042 82.3103 63.6992 82.5177C63.6895 82.6434 63.6544 82.7659 63.5961 82.8778C63.5377 82.9896 63.4573 83.0884 63.3597 83.1683C63.3144 83.2136 63.2409 83.2702 63.2409 83.3381C63.2409 83.406 63.2409 83.3381 63.2409 83.3777" fill="white"/>
<path fill-rule="evenodd" clip-rule="evenodd" d="M7.54537 81.4477V81.493H7.61326C7.79443 81.4638 7.98015 81.4904 8.14586 81.5692C8.31156 81.648 8.44944 81.7753 8.54115 81.9343C8.31333 82.0954 8.09774 82.2732 7.89615 82.4661C7.69541 82.6701 7.50651 82.8855 7.33037 83.1111C7.06446 83.5524 6.61749 84.2426 6.83815 84.9272C7.10406 85.7872 8.25824 85.4138 8.06022 86.0588C7.89619 86.3754 7.65969 86.6487 7.36998 86.8565C5.97816 87.9202 4.0262 87.8127 4.09409 85.7759C4.2106 84.8407 4.54384 83.9457 5.06725 83.162C5.18041 82.9357 5.42368 82.5962 5.33315 82.2737C4.95706 82.85 4.61695 83.449 4.31475 84.0673C3.97582 84.7378 3.73751 85.4546 3.60753 86.1946C3.40385 87.3884 3.69241 88.8311 4.99936 88.9613C5.40778 89.0134 5.82188 88.9278 6.17616 88.718C6.78203 88.4192 7.30046 87.969 7.68115 87.411C8.10407 86.8224 8.39893 86.1517 8.54678 85.4421C8.76743 84.0899 8.14509 84.3105 7.81694 84.1351C7.65711 84.066 7.52965 83.9385 7.46049 83.7787C7.36997 83.4053 7.74904 83.1167 8.02627 82.9131C8.15767 82.8072 8.29772 82.7126 8.44494 82.6302C8.59667 82.5384 8.75346 82.4553 8.91455 82.3812C9.08429 82.4871 9.2803 82.5432 9.48033 82.5432C9.68036 82.5432 9.87638 82.4871 10.0461 82.3812L10.2272 82.2058C10.2951 82.1577 10.3544 82.0984 10.4026 82.0304C10.5553 81.8947 10.6685 81.7419 10.8891 81.7872C11.1098 81.8324 11.2003 81.9852 11.4549 81.9173C11.8566 81.8324 12.1621 81.2101 12.3432 80.8536L12.4054 80.7235C12.5082 80.9444 12.6613 81.1381 12.8524 81.2893C13.1084 81.4438 13.4152 81.4906 13.7057 81.4196C13.9962 81.3485 14.2468 81.1654 14.4026 80.9102C14.6685 80.5538 14.9345 79.9993 15.3984 80.1351C16.1962 80.3331 16.6374 78.8734 16.6148 78.3189C16.3942 78.3642 16.3715 78.9583 16.1283 79.0714C15.885 79.1846 15.619 78.8508 15.1325 79.2921C14.9118 79.5127 14.8665 79.7164 14.4875 79.9144C14.3456 80.0045 14.1845 80.06 14.0172 80.0766C13.85 80.0931 13.6812 80.0702 13.5244 80.0097C13.3676 79.9492 13.2271 79.8527 13.1144 79.7281C13.0016 79.6035 12.9196 79.4541 12.875 79.2921C12.6487 78.6754 12.875 77.1421 12.9372 76.4632C12.9372 76.3726 12.9373 76.2651 12.9825 76.1746C12.9936 76.1243 12.9936 76.0722 12.9825 76.0219C12.9825 75.9313 12.9825 75.9313 12.9203 75.9087C12.8298 76.2199 12.7392 76.5311 12.6317 76.797C12.5068 77.0869 12.4175 77.3908 12.3658 77.7022C12.2526 78.3698 12.2979 78.879 12.23 79.3656C12.23 79.541 12.23 79.7447 12.23 79.9314C12.2458 80.2545 12.1521 80.5734 11.9641 80.8366C11.6303 81.1931 11.2795 80.8366 11.0588 80.9045C10.5892 81.1252 10.346 81.9908 9.70666 81.9229C9.83423 81.807 9.93251 81.6624 9.99348 81.5011C10.0545 81.3399 10.0764 81.1664 10.0574 80.9951C9.83678 79.9767 7.6868 80.5311 7.60194 81.4816" fill="white"/>
<path fill-rule="evenodd" clip-rule="evenodd" d="M38.9971 81.0418L38.1767 81.766C37.9122 82.0728 37.75 82.4545 37.7128 82.8579C37.5981 82.8918 37.4971 82.9611 37.4242 83.0559C37.3224 83.1238 37.2545 83.2257 37.1526 83.2936C37.0694 83.3948 36.9661 83.4777 36.8493 83.5371C36.7324 83.5965 36.6046 83.6311 36.4737 83.6387C34.9688 83.7801 35.1385 81.9131 35.2403 80.8947L35.3818 79.5142C35.3959 79.4337 35.3959 79.3513 35.3818 79.2709C35.3818 79.1464 35.3818 79.1238 35.3082 79.0729C35.2459 79.3528 35.1665 79.6286 35.0706 79.8989C34.9687 80.1648 34.8273 80.4307 34.7537 80.674C34.6457 81.3325 34.589 81.9983 34.584 82.6656C34.584 83.3219 34.6802 84.6062 33.8768 84.6571C33.6618 84.6571 33.5656 84.5553 33.4185 84.5553C32.9319 84.5553 32.8867 85.2116 31.9871 85.2851C31.8408 85.303 31.6924 85.2862 31.5538 85.236C31.4152 85.1859 31.2903 85.1039 31.1893 84.9966C30.7763 84.5553 30.7763 83.9782 30.7989 83.2483C30.8442 82.2299 31.014 80.872 31.1384 79.8027C31.1384 79.633 31.212 79.4123 31.0875 79.3161C31.0422 79.3897 30.8951 79.9215 30.8442 80.046C30.7766 80.2873 30.6876 80.5221 30.5783 80.7476C30.4482 81.3052 30.3668 81.8731 30.335 82.4449C30.2388 83.469 29.9729 85.5058 30.533 86.3544C30.5856 86.4569 30.6588 86.5475 30.748 86.6204C30.8352 86.7061 30.9452 86.765 31.0649 86.7901C31.7947 87.0334 32.2303 86.4506 32.5924 85.9641C32.65 85.8502 32.7428 85.7579 32.8569 85.7008C32.971 85.6438 33.1005 85.625 33.2261 85.6472C33.5656 85.6981 33.6844 85.7943 33.9786 85.551C34.3309 85.2249 34.5972 84.8168 34.7537 84.3629C34.9008 84.5553 35.0197 84.9966 35.4836 85.138C35.6865 85.2115 35.9087 85.2115 36.1116 85.138C36.2851 85.0719 36.4488 84.9824 36.5982 84.8721C36.6944 84.7476 36.8132 84.5779 36.9094 84.4308C36.9997 84.2576 37.1364 84.1129 37.3043 84.0129C37.4722 83.913 37.6645 83.8618 37.8599 83.865C38.0578 83.8974 38.249 83.9624 38.4256 84.0574C38.6406 83.9612 39.2008 83.254 38.9349 82.9258C38.8387 82.8296 38.2276 82.5637 38.2276 82.1507C38.2276 81.7377 40.6322 80.8155 41.1188 80.5269C41.1702 80.4788 41.2272 80.437 41.2885 80.4024C41.5649 80.1577 41.78 79.8515 41.9165 79.5085C41.4869 79.6635 41.0658 79.841 40.6548 80.0403C40.2701 80.1139 38.7877 79.8253 39.4893 78.8748C39.6419 78.7103 39.8381 78.5925 40.0551 78.5354C40.6605 78.4392 40.785 78.971 41.0509 78.8522C41.1471 78.8013 41.1697 78.6598 41.1697 78.5127C41.1458 78.3983 41.0955 78.291 41.0228 78.1993C40.9502 78.1077 40.8572 78.0342 40.7512 77.9848C40.6452 77.9354 40.5291 77.9113 40.4122 77.9146C40.2953 77.9178 40.1808 77.9483 40.0778 78.0035C39.8895 78.1076 39.7179 78.2392 39.5685 78.3939L39.3535 78.6315C39.0367 79.0446 38.0183 80.063 38.403 80.674C38.5049 80.8664 38.7199 80.9399 38.9688 81.0135" fill="white"/>
<path fill-rule="evenodd" clip-rule="evenodd" d="M22.3067 86.1719C21.5316 86.1719 19.0704 86.1719 19.0478 85.0007C19.0478 84.8819 19.0478 84.8367 18.9799 84.7631C18.8676 85.1997 18.805 85.6477 18.7932 86.0984C18.7662 86.38 18.8347 86.6625 18.9876 86.9006C19.1404 87.1386 19.3689 87.3184 19.6362 87.411C20.3108 87.6123 21.0157 87.6928 21.7183 87.6486C23.642 87.6486 27.1555 87.1564 28.6831 85.9852C28.9524 85.7687 29.161 85.486 29.2885 85.1648C29.464 84.7974 29.5676 84.3999 29.594 83.9937C29.3846 84.1351 29.5261 84.3897 28.9377 84.814L28.751 84.9272C28.6377 85.0168 28.5119 85.0892 28.3776 85.1422C26.7821 85.889 24.0889 86.1719 22.3067 86.1719Z" fill="white"/>
<path fill-rule="evenodd" clip-rule="evenodd" d="M17.0222 85.2164C16.9769 85.3295 16.8864 85.4823 16.8468 85.5954C16.4451 86.3479 15.7153 87.9434 16.3546 88.6507C16.4656 88.7636 16.6115 88.8358 16.7687 88.8553C16.9258 88.8748 17.085 88.8406 17.2202 88.7582C17.4593 88.6279 17.6558 88.4315 17.786 88.1924C18.1198 87.57 18.0293 86.8175 17.3447 86.6817L17.0788 87.3041C16.4111 87.1966 17.0788 85.6407 17.2768 85.3352C17.4748 85.0297 17.6106 84.7694 17.7407 84.4695C17.8539 84.2489 18.0745 83.5813 17.9218 83.338C17.786 83.4059 17.6728 84.0282 17.124 83.7793C16.2358 83.4059 17.322 80.8825 17.0335 80.5034C16.9656 80.5939 16.8581 80.9447 16.7902 81.0692C16.7122 81.2626 16.6235 81.4515 16.5243 81.635C16.3996 82.0792 16.3033 82.5308 16.2358 82.9872C16.083 83.7397 15.9246 85.2503 17.0335 85.2503" fill="white"/>
<path fill-rule="evenodd" clip-rule="evenodd" d="M38.1654 86.4715V86.0811C38.1201 85.9509 38.1201 85.1758 37.56 85.1306C36.9999 85.0853 36.932 85.5436 36.7566 85.8887C36.519 86.4092 36.2361 86.6468 36.4737 87.0203C36.6093 87.1801 36.7956 87.2886 37.0015 87.3277C37.2074 87.3668 37.4205 87.3342 37.6053 87.2353C37.56 87.7105 36.3945 88.3668 36.089 88.5818C35.9193 88.7063 35.6816 88.8364 35.6364 89.074C35.8287 89.0118 36.1342 88.8194 36.5246 88.6893C37.0452 88.5139 37.0621 88.7289 37.4299 88.3216C37.7241 87.9364 37.9325 87.4927 38.0409 87.0203C38.0452 86.827 38.0816 86.6358 38.1484 86.4545" fill="white"/>
<path fill-rule="evenodd" clip-rule="evenodd" d="M32.5132 88.6149C32.7168 88.5741 32.9053 88.4781 33.058 88.3374C33.2106 88.1967 33.3217 88.0167 33.3789 87.8171C33.5203 87.3475 32.9828 87.042 32.632 86.9458C32.4906 87.1099 32.3718 87.274 32.2077 87.4663C32.1436 87.5557 32.0736 87.6407 31.9984 87.7209C31.9413 87.8172 31.8708 87.9048 31.789 87.9812C31.7069 87.8241 31.573 87.7002 31.41 87.6304C31.2671 87.53 31.111 87.45 30.946 87.3928C30.8498 87.5116 30.0521 88.4734 30.0068 88.5866C30.1621 88.6445 30.3117 88.7164 30.4538 88.8016C30.5925 88.8635 30.7189 88.9497 30.8272 89.0562C31.0818 89.0562 31.3194 88.8468 31.4609 88.7506C31.618 88.5901 31.7377 88.3969 31.8116 88.1849C32.0741 88.2724 32.3138 88.4174 32.5132 88.6092" fill="white"/>
<path fill-rule="evenodd" clip-rule="evenodd" d="M16.0491 76.1697L15.2514 77.1654C15.0687 76.8807 14.7827 76.6779 14.4536 76.5997L13.786 77.437C13.7015 77.5243 13.6274 77.6212 13.5653 77.7256C13.6785 77.7935 13.8539 77.8387 13.9896 77.9293L14.3631 78.1725C14.5736 78.1338 14.7688 78.0362 14.926 77.8909C15.0832 77.7457 15.196 77.5589 15.2514 77.3522C15.5082 77.427 15.743 77.5629 15.9359 77.7482C16.117 77.8161 16.6262 77.4597 16.7563 77.0183C16.7897 76.8693 16.765 76.7132 16.6872 76.5817C16.6094 76.4503 16.4844 76.3535 16.3376 76.3111C16.2467 76.2705 16.158 76.2252 16.0717 76.1753" fill="white"/>
<path fill-rule="evenodd" clip-rule="evenodd" d="M10.7137 86.9589C10.5323 86.6729 10.2458 86.4696 9.91595 86.3931L9.24834 87.2644C9.20873 87.3096 9.1861 87.3549 9.14084 87.4002L9.05029 87.5077C9.05029 87.5529 9.05029 87.5077 9.05029 87.5529L9.47463 87.7283C9.6071 87.7943 9.72607 87.8845 9.82541 87.9942C10.0446 87.9761 10.2478 87.8724 10.3912 87.7057C10.5545 87.5627 10.6775 87.3793 10.7476 87.1738C10.9959 87.2559 11.2222 87.3932 11.4096 87.5756C11.603 87.5394 11.7824 87.4497 11.9274 87.3167C12.0725 87.1837 12.1773 87.0127 12.23 86.8231C12.3658 86.3761 11.8566 86.0932 11.5228 86.0027L10.8947 86.6986C10.8947 86.7439 10.8268 86.7891 10.8099 86.8344L10.7137 86.9589Z" fill="white"/>
<path fill-rule="evenodd" clip-rule="evenodd" d="M24.2358 83.5285C24.0436 83.2242 23.7418 83.0055 23.3928 82.9174L23.1552 83.2003C23.0837 83.3065 23.0063 83.4085 22.9232 83.5058L22.4536 84.1112C22.6831 84.1978 22.903 84.3078 23.1099 84.4394C23.1592 84.5015 23.2234 84.5502 23.2966 84.5808C23.5188 84.5397 23.7249 84.4366 23.891 84.2834C24.0572 84.1303 24.1767 83.9333 24.2358 83.7152C24.5065 83.7965 24.7545 83.9398 24.96 84.1339C25.2882 84.2527 26.7196 83.0023 25.0788 82.4705C24.8695 82.7081 24.6545 83.0362 24.4678 83.2682C24.3962 83.3599 24.3187 83.4468 24.2358 83.5285Z" fill="white"/>
<path fill-rule="evenodd" clip-rule="evenodd" d="M12.3715 83.7349C12.7373 83.8581 13.0701 84.0632 13.3446 84.3346C13.7011 84.114 14.3404 83.3615 13.7407 82.8919C13.5855 82.7777 13.4138 82.6881 13.2315 82.626L12.5921 83.4464C12.5242 83.5595 12.4337 83.6274 12.3715 83.7349Z" fill="white"/>
<path fill-rule="evenodd" clip-rule="evenodd" d="M7.25696 79.3428C7.43922 79.4126 7.61686 79.4938 7.78879 79.5861C7.85669 79.6314 7.94156 79.7219 8.00946 79.7672C8.07735 79.8124 8.1226 79.8973 8.20747 79.9652C8.36588 79.8973 9.07311 79.2353 8.80719 78.7488C8.73154 78.6213 8.62914 78.5118 8.50703 78.4278C8.38493 78.3438 8.24604 78.2873 8.09997 78.2622L7.89629 78.5281L7.45497 79.0939C7.4097 79.1618 7.30222 79.2976 7.25696 79.3598" fill="white"/>
<path fill-rule="evenodd" clip-rule="evenodd" d="M34.5503 77.5217C32.0552 78.0874 29.3394 78.4665 26.8387 78.8399C25.4016 79.0153 20.1624 79.5302 19.2289 78.8116C19.2109 78.7124 19.2275 78.6099 19.2759 78.5214C19.3243 78.4328 19.4016 78.3636 19.4948 78.3251C20.7509 77.5217 21.2601 77.7593 21.9503 76.7466C22.2154 76.42 22.391 76.03 22.4595 75.615C22.1936 75.7281 21.8485 76.243 21.526 76.5033C21.1648 76.7671 20.7868 77.0071 20.3944 77.2218C19.7664 77.6235 18.7706 78.3534 18.4481 79.2586C18.1256 80.1639 18.8329 80.5203 20.3378 80.492C21.9387 80.4497 23.5363 80.325 25.1244 80.1186C28.3454 79.7224 31.5321 79.0851 34.6578 78.2119C36.7059 77.6065 36.0383 77.2048 34.5333 77.5217" fill="white"/>
</svg>
