<svg width="22" height="32" viewBox="0 0 22 32" fill="none" xmlns="http://www.w3.org/2000/svg">
<path fill-rule="evenodd" clip-rule="evenodd" d="M18.3247 9.0983C17.1595 10.3278 15.2227 12.0114 16.7635 13.7384C18.0794 15.2128 19.7581 16.399 19.5154 18.302C19.5005 18.4789 19.4504 18.651 19.3679 18.8083C19.2854 18.9656 19.1722 19.1048 19.035 19.2177C19.035 19.2177 18.1995 19.3121 17.8673 18.6157C17.8673 18.6157 17.9312 18.2433 17.7217 18.2433C17.7217 18.2433 15.933 20.3733 14.8215 19.9575C13.6512 19.4907 14.7832 17.6872 15.1358 16.8097C15.1358 16.8097 15.7184 15.3225 14.7832 14.8353C13.7075 14.2766 12.1667 15.9653 11.6199 16.6643C10.7642 17.719 9.7786 18.6618 8.68652 19.4703L9.53229 20.409C10.0976 19.8751 10.6181 19.2958 11.0884 18.6769C11.487 18.1668 12.0875 16.8377 12.8183 17.279C13.2399 17.5341 13.3089 18.1693 13.2118 18.6081C13.015 19.5264 10.9121 22.2712 13.314 22.4829C13.825 22.5288 14.6069 22.3936 15.5063 21.5569C15.5063 21.5569 15.8666 21.2125 16.1937 21.2534C16.7992 22.4803 19.8757 20.6692 21.1839 18.353C23.8081 13.7129 17.2362 11.8762 18.4908 9.55746C18.5534 9.46143 18.5889 9.35026 18.5934 9.23574C18.5979 9.12122 18.5712 9.00762 18.5163 8.90698C18.445 8.96286 18.3807 9.0271 18.3247 9.0983Z" fill="white"/>
<path fill-rule="evenodd" clip-rule="evenodd" d="M8.90403 26.4601C8.7405 26.7305 8.53863 27.7355 9.35884 26.807C9.35884 26.807 10.6364 25.3683 11.1884 23.7714C11.1884 23.7714 11.6687 22.2664 9.82645 20.5165C9.82645 20.5165 7.93561 18.9119 7.92028 17.6646C7.92028 17.6646 7.40924 15.7845 9.00623 13.3714C9.00623 13.3714 10.6134 10.5373 8.39044 10.6343L2.61061 10.8358C1.87983 10.8613 1.78018 10.7695 1.27426 11.4199L0.137199 12.9505C0.137199 12.9505 -0.373845 13.5576 0.576683 13.4275C4.85917 12.7872 7.17161 14.6596 4.63687 18.5293C3.22641 20.6772 1.28959 22.7128 1.12861 25.9473C0.944638 29.6104 3.42827 31.0338 6.56603 31.6843C13.1405 33.0491 20.99 29.9803 21.9457 22.6388C22.053 21.8047 22.03 21.5929 21.6109 22.4883C20.1213 25.682 18.0592 28.4574 12.9233 28.8911C12.9233 28.8911 6.53537 29.9599 3.83454 26.5749C2.32187 24.5112 4.01341 20.0828 5.83781 18.6671C5.86592 18.6671 5.91957 19.3915 6.11632 20.2333C6.79344 23.1209 10.0539 23.1311 8.92702 26.4524" fill="white"/>
<path fill-rule="evenodd" clip-rule="evenodd" d="M1.89781 15.2283C3.14985 14.6748 4.6293 15.7385 3.68644 17.1441C3.39932 17.5975 3.03123 17.9943 2.60048 18.3149C2.47784 18.3991 1.78283 18.8812 2.08945 18.2945C2.81512 16.94 1.81348 16.6849 0.678982 16.764C-0.938449 16.8788 1.49408 15.3993 1.88502 15.2334" fill="white"/>
<path fill-rule="evenodd" clip-rule="evenodd" d="M15.8164 9.66699C15.7219 10.4986 15.3539 12.3863 14.1504 11.7485C14.0814 12.2077 13.2255 13.075 12.1216 12.6541C11.5927 12.7 11.0484 13.1923 10.5681 13.7102C10.2589 14.0443 10.3355 13.9908 10.0979 14.2357C9.8424 14.5392 9.21127 14.8071 9.91139 14.0316C10.0264 13.904 10.0775 13.8199 10.3202 13.5035C10.4224 13.3735 10.8312 12.8658 11.0868 12.4475C11.3423 12.0291 11.8073 10.7231 12.4563 11.0394C12.9137 11.2639 12.4742 11.899 13.0543 11.8251C13.6343 11.7511 13.55 10.8353 14.1019 10.9833C14.6538 11.1312 14.6615 11.5164 14.7841 11.2639C14.9068 11.0113 14.6998 10.0598 15.6069 9.75117L15.7883 9.67209L15.8164 9.66699Z" fill="white"/>
<path fill-rule="evenodd" clip-rule="evenodd" d="M12.302 5.42997C12.4936 5.62129 13.5796 6.70542 14.0395 6.86103C14.2226 6.96651 14.436 7.00697 14.6451 6.97582C14.6451 6.97582 15.0539 6.9146 14.7575 7.26407C14.4554 7.60625 14.1356 7.93236 13.7993 8.24107C13.0711 8.89155 12.4808 9.11348 11.7066 8.463L10.6437 7.56508C10.6437 7.56508 10.3881 7.30999 10.2169 7.4962C10.1096 7.6212 9.5296 8.12117 9.1591 8.43493C8.5714 8.94512 7.80741 9.24867 7.10218 8.85583C6.95398 8.77421 6.61414 8.48595 6.33562 8.28443C5.67383 7.79466 5.63294 7.33805 6.13375 6.84062C6.58346 6.39676 7.19416 5.84322 7.19416 5.84322C7.22383 5.81468 7.25912 5.79263 7.29781 5.77848C7.33649 5.76433 7.37772 5.75838 7.41883 5.76102C7.45994 5.76367 7.50004 5.77483 7.53659 5.79382C7.57314 5.8128 7.60532 5.83918 7.63109 5.87128C7.99207 6.21946 8.38091 6.53767 8.79371 6.82276C8.9488 6.96104 9.14245 7.04879 9.34882 7.07432C9.55518 7.09984 9.76443 7.06192 9.94864 6.96561C10.5542 6.66971 11.2262 5.88148 11.7628 5.44783C11.7959 5.41123 11.8361 5.38167 11.8808 5.36089C11.9256 5.3401 11.9741 5.32854 12.0235 5.32687C12.0728 5.3252 12.122 5.33347 12.1681 5.35119C12.2142 5.3689 12.2563 5.39569 12.2918 5.42997" fill="white"/>
<path fill-rule="evenodd" clip-rule="evenodd" d="M8.18302 3.12159C7.95061 3.82016 7.91176 4.56849 8.07059 5.28731C8.36188 6.33318 9.34818 6.91989 10.3703 6.36634C11.1751 5.93013 11.6223 4.8511 10.6028 3.7185C9.90265 2.95323 9.80556 1.4482 10.2399 0.527321C10.2399 0.527321 10.5747 -0.411412 9.87199 0.21611C9.16932 0.843632 8.45131 2.23898 8.19324 3.12159" fill="white"/>
</svg>
