<svg width="26" height="34" viewBox="0 0 26 34" fill="none" xmlns="http://www.w3.org/2000/svg">
<path d="M2.44765 0.0171139C2.52529 0.0168136 2.60294 0.0165133 2.68294 0.0162039C2.89799 0.0155106 3.11303 0.0154105 3.32808 0.0155669C3.5602 0.015594 3.79232 0.0148621 4.02444 0.0142338C4.47905 0.0131334 4.93366 0.0127685 5.38828 0.0126945C5.7579 0.0126315 6.12752 0.012359 6.49715 0.0119389C7.54554 0.0107717 8.59393 0.0101601 9.64232 0.0102596C9.69882 0.0102649 9.75533 0.0102702 9.81354 0.0102756C9.8984 0.0102837 9.8984 0.0102837 9.98497 0.010292C10.9016 0.0103459 11.8182 0.00907777 12.7348 0.0072086C13.6764 0.00530366 14.618 0.00438928 15.5596 0.00450374C16.088 0.00454771 16.6165 0.00418501 17.1449 0.00275697C17.5949 0.00154875 18.0449 0.00126285 18.4949 0.00216174C18.7243 0.0025939 18.9538 0.00260447 19.1832 0.00145216C19.4323 0.000213965 19.6814 0.00104442 19.9305 0.00206601C20.0025 0.00138423 20.0745 0.000702445 20.1487 0C20.8532 0.00637513 21.3469 0.22387 21.8571 0.729695C22.2214 1.16397 22.3858 1.64162 22.3854 2.21216C22.3855 2.28183 22.3855 2.28183 22.3856 2.35291C22.3857 2.50892 22.3854 2.66492 22.385 2.82092C22.385 2.9326 22.385 3.04429 22.385 3.15597C22.3851 3.45953 22.3847 3.76309 22.3842 4.06665C22.3838 4.38375 22.3838 4.70085 22.3837 5.01796C22.3835 5.6186 22.383 6.21925 22.3824 6.81989C22.3817 7.50363 22.3813 8.18738 22.381 8.87112C22.3803 10.2778 22.3792 11.6844 22.3778 13.0911C22.3078 13.0773 22.2378 13.0635 22.1657 13.0492C22.073 13.031 21.9804 13.0128 21.8878 12.9945C21.8418 12.9854 21.7957 12.9763 21.7483 12.967C19.7671 12.5777 17.7699 12.9987 16.0911 14.1758C14.3557 15.4687 13.263 17.3358 12.8775 19.5123C12.6793 20.7845 12.811 22.0123 13.193 23.2313C13.2102 23.2866 13.2274 23.342 13.2452 23.3991C13.3441 23.6978 13.4591 23.947 13.624 24.2123C13.8766 24.6928 13.8499 25.1643 13.8312 25.6946C13.8291 25.7961 13.8271 25.8976 13.8253 25.999C13.8202 26.2638 13.8127 26.5283 13.8046 26.793C13.7969 27.064 13.7913 27.335 13.7856 27.6061C13.7741 28.1362 13.7601 28.6661 13.7444 29.1961C12.1817 29.2023 10.619 29.2069 9.05624 29.2098C8.33062 29.2112 7.605 29.213 6.87938 29.2161C6.24684 29.2187 5.61431 29.2204 4.98177 29.221C4.64692 29.2213 4.31209 29.2222 3.97724 29.2241C3.66185 29.2259 3.34648 29.2264 3.03109 29.226C2.91555 29.2261 2.80001 29.2266 2.68448 29.2277C1.56457 29.2371 1.56457 29.2371 1.1118 28.931C1.06643 28.9014 1.02107 28.8719 0.974324 28.8415C0.503261 28.5214 0.18488 28.0331 0.032632 27.4729C0.0165714 27.2594 0.0165715 27.2594 0.0163005 27.0242C0.0160779 26.9805 0.0158552 26.9369 0.0156258 26.8919C0.0150357 26.7457 0.0153469 26.5995 0.0156556 26.4533C0.0154184 26.3474 0.0151264 26.2414 0.0147841 26.1355C0.0140073 25.8445 0.0140242 25.5535 0.0141739 25.2624C0.0141998 24.9485 0.0134991 24.6346 0.0128969 24.3207C0.0118422 23.7058 0.0114935 23.0908 0.0114227 22.4758C0.0113624 21.9759 0.0111014 21.476 0.0106989 20.9761C0.00958072 19.5588 0.00899525 18.1416 0.00909045 16.7243C0.00909552 16.6479 0.00910048 16.5714 0.0091057 16.4927C0.00911089 16.4162 0.0091161 16.3397 0.00912144 16.2609C0.00917304 15.0211 0.00795821 13.7813 0.00616807 12.5414C0.00434447 11.2684 0.00346752 9.99537 0.00357721 8.72234C0.00361936 8.00763 0.00327049 7.29292 0.00190413 6.57821C0.000748196 5.96967 0.000472014 5.36114 0.00133409 4.7526C0.00174868 4.44218 0.00175564 4.13177 0.000654345 3.82135C-0.000344196 3.53697 -0.000162413 3.25261 0.000944452 2.96823C0.00113934 2.86556 0.000908567 2.76289 0.000200296 2.66022C-0.00509426 1.83806 0.103773 1.23852 0.658015 0.629764C1.2008 0.108418 1.7286 0.0150797 2.44765 0.0171139ZM5.365 5.73867C5.14744 6.07228 5.13281 6.32961 5.17456 6.72866C5.32361 7.05185 5.51022 7.21933 5.80937 7.39142C6.03836 7.45252 6.25303 7.46626 6.48885 7.467C6.5611 7.46738 6.63336 7.46776 6.7078 7.46815C6.82583 7.46826 6.82583 7.46826 6.94625 7.46837C7.07125 7.46887 7.07125 7.46887 7.19878 7.46937C7.42701 7.47024 7.65523 7.47067 7.88346 7.47096C8.02625 7.47116 8.16903 7.47143 8.31182 7.47172C8.75912 7.47263 9.20643 7.47327 9.65374 7.47353C10.169 7.47382 10.6843 7.47499 11.1996 7.47691C11.5986 7.47834 11.9976 7.47901 12.3966 7.4791C12.6346 7.47917 12.8726 7.47955 13.1106 7.48074C13.3763 7.48204 13.642 7.48175 13.9078 7.48132C13.986 7.48193 14.0641 7.48254 14.1447 7.48317C14.836 7.48455 14.836 7.48455 15.434 7.16264C15.6924 6.84882 15.7349 6.63594 15.7299 6.23419C15.7038 5.98475 15.6182 5.85264 15.4584 5.66826C15.1107 5.38249 14.8313 5.32893 14.398 5.32757C14.3258 5.32719 14.2535 5.32681 14.1791 5.32642C14.0611 5.32631 14.0611 5.32631 13.9406 5.3262C13.8156 5.32571 13.8156 5.32571 13.6881 5.3252C13.4599 5.32433 13.2317 5.32391 13.0034 5.32361C12.8607 5.32342 12.7179 5.32314 12.5751 5.32285C12.1278 5.32194 11.6805 5.3213 11.2332 5.32105C10.7179 5.32075 10.2026 5.31959 9.6873 5.31767C9.28829 5.31623 8.88929 5.31556 8.49027 5.31548C8.25229 5.31541 8.01432 5.31502 7.77634 5.31383C7.51059 5.31253 7.24486 5.31282 6.97911 5.31325C6.90093 5.31264 6.82276 5.31203 6.74221 5.3114C5.97771 5.31475 5.97771 5.31475 5.365 5.73867ZM5.365 9.98031C5.14744 10.3139 5.13281 10.5712 5.17456 10.9703C5.32361 11.2935 5.51022 11.461 5.80937 11.6331C6.03836 11.6941 6.25303 11.7079 6.48885 11.7086C6.5611 11.709 6.63336 11.7094 6.7078 11.7098C6.82583 11.7099 6.82583 11.7099 6.94625 11.71C7.07125 11.7105 7.07125 11.7105 7.19878 11.711C7.42701 11.7119 7.65523 11.7123 7.88346 11.7126C8.02625 11.7128 8.16903 11.7131 8.31182 11.7134C8.75912 11.7143 9.20643 11.7149 9.65374 11.7152C10.169 11.7155 10.6843 11.7166 11.1996 11.7185C11.5986 11.72 11.9976 11.7206 12.3966 11.7207C12.6346 11.7208 12.8726 11.7212 13.1106 11.7224C13.3763 11.7237 13.642 11.7234 13.9078 11.723C13.986 11.7236 14.0641 11.7242 14.1447 11.7248C14.836 11.7262 14.836 11.7262 15.434 11.4043C15.6924 11.0905 15.7349 10.8776 15.7299 10.4758C15.7038 10.2264 15.6182 10.0943 15.4584 9.90989C15.1107 9.62412 14.8313 9.57057 14.398 9.5692C14.3258 9.56882 14.2535 9.56845 14.1791 9.56806C14.0611 9.56794 14.0611 9.56794 13.9406 9.56783C13.8156 9.56734 13.8156 9.56734 13.6881 9.56683C13.4599 9.56597 13.2317 9.56554 13.0034 9.56524C12.8607 9.56505 12.7179 9.56478 12.5751 9.56448C12.1278 9.56358 11.6805 9.56293 11.2332 9.56268C10.7179 9.56238 10.2026 9.56122 9.6873 9.5593C9.28829 9.55786 8.88929 9.5572 8.49027 9.55711C8.25229 9.55704 8.01432 9.55665 7.77634 9.55546C7.51059 9.55416 7.24486 9.55446 6.97911 9.55489C6.90093 9.55428 6.82276 9.55367 6.74221 9.55304C5.97771 9.55638 5.97771 9.55638 5.365 9.98031ZM5.45407 14.1152C5.19358 14.4273 5.15197 14.6423 5.15695 15.0437C5.18305 15.2931 5.26869 15.4252 5.42848 15.6096C5.81497 15.9272 6.14193 15.9509 6.61992 15.9516C6.69291 15.9521 6.69291 15.9521 6.76738 15.9526C6.92778 15.9536 7.08818 15.9541 7.24859 15.9544C7.36063 15.9548 7.47267 15.9552 7.5847 15.9556C7.81949 15.9563 8.05429 15.9566 8.28908 15.9569C8.58883 15.9572 8.88855 15.9588 9.1883 15.9607C9.41976 15.962 9.65121 15.9623 9.88268 15.9624C9.99312 15.9626 10.1036 15.9631 10.214 15.964C11.1015 16.0119 11.1015 16.0119 11.8779 15.6459C12.1384 15.3338 12.18 15.1188 12.175 14.7175C12.1489 14.468 12.0633 14.3359 11.9035 14.1515C11.517 13.8339 11.1901 13.8102 10.7121 13.8095C10.6391 13.809 10.6391 13.809 10.5646 13.8085C10.4042 13.8075 10.2438 13.807 10.0834 13.8067C9.97136 13.8063 9.85932 13.8059 9.74728 13.8055C9.51249 13.8048 9.2777 13.8045 9.04291 13.8042C8.74316 13.8039 8.44343 13.8023 8.14369 13.8004C7.91223 13.7991 7.68077 13.7988 7.44931 13.7987C7.33887 13.7985 7.22842 13.798 7.11798 13.7971C6.23047 13.7492 6.23047 13.7492 5.45407 14.1152Z" fill="#2B39A1"/>
<path d="M23.266 15.676C23.3201 15.7081 23.3742 15.7401 23.4299 15.7731C24.7012 16.5981 25.5109 17.9574 25.8687 19.4537C26.2156 21.0375 25.8515 22.6003 25.0589 23.9519C24.2225 25.2535 23.0074 26.1125 21.552 26.4789C20.5554 26.6737 19.4629 26.6304 18.505 26.2801C18.4392 26.2569 18.3734 26.2336 18.3056 26.2097C16.8235 25.6264 15.7744 24.4503 15.1304 22.9654C14.6128 21.6891 14.5301 20.0259 15.0135 18.7247C15.1626 18.3595 15.3338 18.0094 15.5214 17.6643C15.5521 17.6078 15.5828 17.5513 15.6144 17.4932C16.4046 16.1659 17.7065 15.3205 19.1398 14.947C20.5799 14.6008 22.0103 14.9323 23.266 15.676ZM21.2981 18.327C20.9971 18.6292 20.771 19.0035 20.5443 19.3667C20.478 19.4719 20.4117 19.5771 20.3454 19.6823C20.3133 19.7334 20.2812 19.7846 20.2481 19.8372C20.1642 19.9701 20.0791 20.1022 19.9933 20.2337C19.9473 20.3044 19.9013 20.3751 19.8539 20.4479C19.8137 20.5094 19.7734 20.5709 19.7319 20.6343C19.6366 20.7698 19.6366 20.7698 19.6476 20.9118C19.379 20.7766 19.1234 20.6392 18.874 20.4686C18.632 20.3104 18.4707 20.2176 18.1794 20.2762C17.8127 20.3815 17.6389 20.5188 17.4258 20.8455C17.3075 21.0925 17.3359 21.3713 17.3623 21.6408C17.6516 22.3599 18.8636 23.021 19.5207 23.364C19.8181 23.398 20.0761 23.3988 20.3538 23.277C20.9432 22.7018 21.3646 21.8817 21.8078 21.183C21.8863 21.0596 21.9651 20.9364 22.0442 20.8134C22.1597 20.6338 22.2743 20.4535 22.3887 20.2731C22.4239 20.2187 22.4592 20.1643 22.4955 20.1082C22.7164 19.7564 22.9137 19.4032 22.8693 18.9662C22.7272 18.6039 22.5476 18.3709 22.194 18.2043C21.8543 18.0886 21.6022 18.1379 21.2981 18.327Z" fill="#2B39A1"/>
<path d="M15.7768 27.009C15.8479 27.0567 15.8479 27.0567 15.9205 27.1053C15.983 27.147 16.0455 27.1887 16.1098 27.2316C16.1717 27.273 16.2335 27.3143 16.2972 27.3569C16.5152 27.4992 16.7366 27.6274 16.967 27.7463C17.0098 27.7684 17.0526 27.7905 17.0967 27.8133C18.9224 28.7318 20.9796 28.8176 22.8866 28.1357C23.58 27.8673 24.1899 27.5247 24.791 27.0753C24.8329 27.0534 24.8748 27.0316 24.918 27.009C24.9238 27.8231 24.9284 28.6371 24.9311 29.4512C24.9324 29.8292 24.9342 30.2072 24.9371 30.5852C24.9399 30.95 24.9414 31.3148 24.942 31.6797C24.9425 31.8188 24.9434 31.958 24.9448 32.0971C24.9467 32.2921 24.9469 32.4871 24.9468 32.6821C24.9477 32.7395 24.9486 32.797 24.9496 32.8562C24.9472 33.2155 24.8916 33.417 24.664 33.7029C24.3745 33.9901 24.116 34.0053 23.734 33.999C23.3438 33.942 23.037 33.7344 22.7041 33.5247C22.6297 33.4798 22.5553 33.4349 22.4807 33.3903C22.1157 33.1702 21.756 32.9415 21.3968 32.7113C21.3333 32.6711 21.2699 32.6308 21.2046 32.5893C21.0851 32.513 20.9663 32.4355 20.8483 32.3566C20.7951 32.3223 20.7419 32.2881 20.6871 32.2528C20.6411 32.2224 20.5952 32.1919 20.5479 32.1605C20.4086 32.0964 20.4086 32.0964 20.2556 32.158C20.0894 32.247 19.9249 32.3371 19.7621 32.4328C19.6984 32.4702 19.6346 32.5076 19.5689 32.5461C19.5011 32.5861 19.4333 32.6261 19.3634 32.6673C19.2932 32.7082 19.223 32.7492 19.1506 32.7913C18.8075 32.992 18.4673 33.1957 18.1322 33.4108C18.074 33.4475 18.0159 33.4842 17.9559 33.5221C17.8477 33.5907 17.7402 33.6606 17.6338 33.7322C17.2327 33.9842 16.8759 34.0305 16.4116 33.968C16.0964 33.8152 15.9415 33.6212 15.7768 33.3052C15.742 33.097 15.7446 32.893 15.7479 32.6821C15.7479 32.6206 15.7478 32.5592 15.7478 32.4958C15.748 32.2936 15.75 32.0913 15.752 31.8891C15.7524 31.7485 15.7528 31.6079 15.753 31.4673C15.754 31.0979 15.7565 30.7286 15.7593 30.3592C15.7619 29.9821 15.7631 29.6049 15.7644 29.2277C15.7671 28.4881 15.7714 27.7486 15.7768 27.009Z" fill="#2B39A1"/>
</svg>
