<svg width="15" height="14" viewBox="0 0 15 14" fill="none" xmlns="http://www.w3.org/2000/svg">
<path d="M8.50911 2.04754L9.53578 4.10087C9.67578 4.38671 10.0491 4.66087 10.3641 4.71337L12.2249 5.02254C13.4149 5.22087 13.6949 6.08421 12.8374 6.93587L11.3908 8.38254C11.1458 8.62754 11.0116 9.10004 11.0874 9.43837L11.5016 11.2292C11.8283 12.6467 11.0758 13.195 9.82161 12.4542L8.07745 11.4217C7.76245 11.235 7.24328 11.235 6.92245 11.4217L5.17828 12.4542C3.92995 13.195 3.17161 12.6409 3.49828 11.2292L3.91245 9.43837C3.98828 9.10004 3.85411 8.62754 3.60911 8.38254L2.16245 6.93587C1.31078 6.08421 1.58495 5.22087 2.77495 5.02254L4.63578 4.71337C4.94495 4.66087 5.31828 4.38671 5.45828 4.10087L6.48495 2.04754C7.04495 0.933372 7.95495 0.933372 8.50911 2.04754Z" fill="#FCAF20"/>
</svg>
