<svg width="14" height="14" viewBox="0 0 14 14" fill="none" xmlns="http://www.w3.org/2000/svg">
<path d="M12.833 3.79175H9.33301" stroke="#292D32" stroke-width="1.5" stroke-miterlimit="10" stroke-linecap="round" stroke-linejoin="round"/>
<path d="M9.33333 3.79175H7" stroke="#292D32" stroke-width="1.5" stroke-miterlimit="10" stroke-linecap="round" stroke-linejoin="round"/>
<path d="M3.20866 5.83333C4.33624 5.83333 5.25033 4.91925 5.25033 3.79167C5.25033 2.66409 4.33624 1.75 3.20866 1.75C2.08108 1.75 1.16699 2.66409 1.16699 3.79167C1.16699 4.91925 2.08108 5.83333 3.20866 5.83333Z" stroke="#292D32" stroke-width="1.5" stroke-miterlimit="10" stroke-linecap="round" stroke-linejoin="round"/>
<path d="M7.00033 10.2083H4.66699" stroke="#292D32" stroke-width="1.5" stroke-miterlimit="10" stroke-linecap="round" stroke-linejoin="round"/>
<path d="M4.66699 10.2083H1.16699" stroke="#292D32" stroke-width="1.5" stroke-miterlimit="10" stroke-linecap="round" stroke-linejoin="round"/>
<path d="M10.7917 12.2501C11.9192 12.2501 12.8333 11.336 12.8333 10.2084C12.8333 9.08083 11.9192 8.16675 10.7917 8.16675C9.66409 8.16675 8.75 9.08083 8.75 10.2084C8.75 11.336 9.66409 12.2501 10.7917 12.2501Z" stroke="#292D32" stroke-width="1.5" stroke-miterlimit="10" stroke-linecap="round" stroke-linejoin="round"/>
</svg>
